<svg version="1.1" id="Layer_1" xmlns="http://www.w3.org/2000/svg" xmlns:xlink="http://www.w3.org/1999/xlink" x="0px" y="0px"
	 width="100%" viewBox="0 0 344 147" enable-background="new 0 0 344 147" xml:space="preserve">
<path fill="#FCFEFE" opacity="1.000000" stroke="none" 
	d="
M294.000000,148.000000 
	C279.645782,148.000000 265.291534,148.000000 250.653168,147.661499 
	C254.580566,145.882004 258.792114,144.441040 263.293701,142.975967 
	C264.069031,142.666275 264.554321,142.380692 265.305908,142.032379 
	C265.780273,141.684174 265.988342,141.398712 266.150330,141.128418 
	C266.104248,141.143585 266.178009,141.206604 266.427094,141.149902 
	C266.880219,140.716370 267.084259,140.339523 267.554199,139.695679 
	C276.939392,136.538956 276.584106,127.474022 278.711792,120.837074 
	C281.348694,112.611763 278.407288,104.114548 273.413208,96.981865 
	C267.805145,88.972321 259.440247,85.755173 249.721634,84.815918 
	C248.712280,84.626976 247.952438,84.605019 246.801086,84.457062 
	C245.590775,84.320885 244.771973,84.310707 243.499527,84.191193 
	C235.691696,84.081856 228.337494,84.081856 220.396317,84.081856 
	C220.598541,86.042053 220.757660,87.584251 220.838348,89.581879 
	C220.810074,108.683243 220.860229,127.329170 220.751907,146.206314 
	C220.395630,146.958344 220.197815,147.479172 220.000000,148.000000 
	C207.312439,148.000000 194.624878,148.000000 181.468933,147.683716 
	C181.001755,146.945724 181.002975,146.524002 181.299133,145.913651 
	C183.439819,144.502213 185.285583,143.279434 187.479599,142.029297 
	C196.883865,137.382843 202.084808,129.881500 203.546860,119.974304 
	C205.618317,105.937714 198.641785,92.936760 185.751007,87.872131 
	C184.705444,87.088249 183.909088,86.516762 182.858612,85.690155 
	C180.730423,84.913078 178.856384,84.391106 176.785034,83.658875 
	C175.698898,83.534859 174.810104,83.621094 173.497726,83.706161 
	C155.734009,83.732742 138.393845,83.760498 120.615204,83.613739 
	C112.526733,83.434204 104.876762,83.429161 96.871506,83.329147 
	C96.277512,83.286285 96.038818,83.338387 95.390015,83.344940 
	C93.900558,83.431320 92.821198,83.563248 91.422852,83.550720 
	C90.422821,83.504578 89.741791,83.602882 88.634857,83.543793 
	C85.801186,83.461830 83.393402,83.537254 80.539406,83.462784 
	C73.039581,83.417870 65.985970,83.522858 58.501266,83.485992 
	C54.696438,83.424210 51.322701,83.504257 47.506287,83.449341 
	C40.364517,83.696068 33.665424,84.077751 26.684772,84.336723 
	C21.609148,86.838272 16.815086,89.462540 11.710950,92.211594 
	C10.190130,93.685089 8.670501,94.865623 7.827196,96.414398 
	C5.404891,100.863121 3.256215,105.460838 1.000001,110.000000 
	C1.000000,77.979103 1.000000,45.958210 1.468263,13.477945 
	C7.627392,13.020041 13.318257,13.021508 19.303473,13.321211 
	C19.757660,15.418908 20.050865,17.217983 20.056068,19.017889 
	C20.094944,32.463219 20.067919,45.908730 20.087450,59.354149 
	C20.090008,61.114052 20.239855,62.873741 20.323553,64.678162 
	C25.104977,64.678162 29.347143,64.678162 34.316925,64.678162 
	C34.316925,47.341663 34.316925,30.294329 34.681046,13.221930 
	C36.024624,13.165842 37.004082,13.134820 38.241886,13.140266 
	C38.670879,13.143019 38.841518,13.109301 39.476311,13.115183 
	C52.866489,13.292352 52.866489,13.292352 52.000000,1.000000 
	C58.021152,1.000000 64.042305,1.000000 70.508392,1.468190 
	C70.953323,22.838785 70.953323,43.741188 70.953323,64.686737 
	C75.966850,64.686737 80.220688,64.686737 85.120865,64.686737 
	C85.120865,48.635391 85.120865,32.862083 85.404373,17.298077 
	C89.045921,27.155718 92.403961,36.804058 95.769608,46.784660 
	C96.192528,48.407589 96.607849,49.698261 97.036095,51.344589 
	C98.051201,53.466133 99.053375,55.232025 100.005280,57.328316 
	C99.954086,58.102047 99.953163,58.545376 99.920547,59.303238 
	C100.202766,60.122169 100.516678,60.626568 100.796913,61.137848 
	C100.763237,61.144730 100.754242,61.212894 100.747696,61.620438 
	C102.288612,65.677437 108.746101,66.305008 112.659134,62.866478 
	C115.938927,53.195557 119.044037,43.827423 122.346535,34.258865 
	C122.645767,33.706238 122.747620,33.354038 123.046547,32.689323 
	C123.568344,30.949121 123.893066,29.521437 124.183487,28.053122 
	C124.149193,28.012491 124.152748,28.118769 124.448967,27.915894 
	C125.695030,24.849407 126.644875,21.985792 127.740784,18.908443 
	C128.224258,18.150909 128.561661,17.607107 128.949127,17.525650 
	C129.099823,33.337074 129.200439,48.686150 129.291595,64.233727 
	C129.282135,64.432228 129.563263,64.712379 129.563263,64.712379 
	C129.563263,64.712379 129.959335,64.685204 130.394638,64.773560 
	C132.899399,64.821083 134.968857,64.780251 137.268951,64.793884 
	C137.499588,64.848351 137.961914,64.744095 138.296936,64.806534 
	C139.083862,64.837555 139.535767,64.806137 140.318039,64.848030 
	C141.379837,64.605240 142.111252,64.289131 142.932465,63.513641 
	C143.014832,42.369511 143.007401,21.684755 143.000000,1.000000 
	C210.333359,1.000000 277.666718,1.000000 345.000000,1.000000 
	C345.000000,10.096985 345.000000,19.079834 344.657257,28.393297 
	C339.487061,12.490862 329.351074,3.494867 314.712555,2.607496 
	C300.570068,2.506123 286.800690,2.579631 272.585541,2.500838 
	C259.433441,2.438210 246.727081,2.527882 233.590240,2.478504 
	C230.454926,2.397312 227.750076,2.455171 224.801270,2.430331 
	C224.395096,2.403437 224.232849,2.459240 223.607574,2.421085 
	C215.776123,2.410105 208.407684,2.493083 200.596436,2.439066 
	C196.116898,2.607264 192.080200,2.912457 187.680847,3.066225 
	C186.546539,3.018701 185.774857,3.122601 184.796570,3.204675 
	C184.281616,3.213101 184.072769,3.373105 183.583740,3.696731 
	C179.439621,5.767240 175.675125,7.803878 171.601212,9.977017 
	C155.409180,23.424723 157.100174,48.330139 173.083466,59.470818 
	C179.092941,64.232376 185.730530,66.055679 193.459045,65.919296 
	C198.950653,65.941666 203.979401,65.895271 209.432205,65.909798 
	C211.566818,65.929955 213.277374,65.889191 215.317581,65.916435 
	C216.091461,65.939659 216.535706,65.894867 217.444550,65.910965 
	C222.939896,65.926865 227.970657,65.881874 233.451660,65.904434 
	C236.936203,65.930046 239.970520,65.888123 243.464813,65.914719 
	C248.283966,65.934845 252.643112,65.886444 257.464508,65.906715 
	C262.952362,65.927078 267.977997,65.878777 273.445007,65.903786 
	C276.271790,66.045021 278.657196,66.112938 281.361725,66.437607 
	C289.787048,66.796753 297.893188,66.899132 306.257080,67.280670 
	C308.676117,67.373222 310.837433,67.186607 313.000488,66.791245 
	C313.002167,66.582481 313.007538,66.164986 313.329407,66.090851 
	C314.079132,65.922043 314.506958,65.827385 315.317596,65.762344 
	C317.468506,65.445351 319.236633,65.098740 321.356262,64.722336 
	C330.013458,62.271503 335.904724,56.787266 340.925720,49.937874 
	C342.495728,51.053432 343.747864,52.026714 345.000000,53.000000 
	C345.000000,67.354225 345.000000,81.708458 344.751678,96.533211 
	C344.503357,97.003738 344.006683,97.006714 344.003296,97.003342 
	C343.999939,96.999969 343.991150,96.994110 343.861328,96.687233 
	C343.906158,92.460663 343.064667,89.431229 337.845490,89.775505 
	C332.946899,84.858078 326.661438,86.026932 320.804840,84.524231 
	C318.047546,84.174065 315.525665,84.161537 312.564270,84.076645 
	C309.750977,84.044075 307.377136,84.083878 304.568237,84.052856 
	C302.079285,84.029099 300.025482,84.076172 297.651733,84.059723 
	C296.900452,84.033585 296.469086,84.070984 295.681305,84.077164 
	C295.043549,84.757004 294.762268,85.468071 294.447876,86.468330 
	C294.429749,87.144997 294.444702,87.532478 294.356873,88.243797 
	C294.335571,88.778923 294.416992,88.990211 294.462097,89.654343 
	C294.532837,108.399666 294.639923,126.692131 294.590515,145.282837 
	C294.450592,146.027405 294.467224,146.473755 294.327850,147.174377 
	C294.114532,147.619095 294.057251,147.809555 294.000000,148.000000 
z"/>
<path fill="#6FC8B2" opacity="1.000000" stroke="none" 
	d="
M85.120865,17.088774 
	C85.120865,32.862083 85.120865,48.635391 85.120865,64.686737 
	C80.220688,64.686737 75.966850,64.686737 70.953323,64.686737 
	C70.953323,43.741188 70.953323,22.838785 70.976662,1.468190 
	C77.021156,1.000000 83.042305,1.000000 89.492821,1.364959 
	C88.103004,5.211686 86.283829,8.693454 84.314743,12.462139 
	C85.742340,12.462139 87.208107,12.462139 88.673874,12.462139 
	C88.834961,13.003352 88.996056,13.544564 89.157143,14.085777 
	C87.945778,14.502763 86.679893,14.814925 85.555717,15.399568 
	C85.211136,15.578771 85.254921,16.504761 85.120865,17.088774 
z"/>
<path fill="#87CCA8" opacity="1.000000" stroke="none" 
	d="
M34.316925,13.246993 
	C34.316925,30.294329 34.316925,47.341663 34.316925,64.678162 
	C29.347143,64.678162 25.104977,64.678162 20.323553,64.678162 
	C20.239855,62.873741 20.090008,61.114052 20.087450,59.354149 
	C20.067919,45.908730 20.094944,32.463219 20.056068,19.017889 
	C20.050865,17.217983 19.757660,15.418908 19.072952,13.008152 
	C18.032055,8.597903 17.516027,4.798951 17.000000,1.000000 
	C22.022093,1.000000 27.044184,1.000000 32.533051,1.459355 
	C33.438854,5.694804 33.877888,9.470899 34.316925,13.246993 
z"/>
<path fill="#07B4E3" opacity="1.000000" stroke="none" 
	d="
M340.607880,49.795601 
	C335.904724,56.787266 330.013458,62.271503 321.361450,64.374130 
	C321.182922,62.159927 321.350677,60.264133 321.568848,57.798687 
	C323.774994,58.321236 325.649017,58.765118 327.000000,59.085114 
	C327.000000,46.760303 326.918884,34.512497 327.071167,22.267593 
	C327.100250,19.930199 328.142029,17.620304 328.552948,15.269116 
	C329.115112,12.052283 329.867126,9.594515 325.263367,7.515455 
	C320.947479,5.566382 317.159180,5.821846 313.000854,5.748868 
	C313.000305,5.332047 313.000122,5.165319 313.173035,4.741841 
	C313.925964,3.917521 314.505798,3.349951 315.085632,2.782379 
	C329.351074,3.494867 339.487061,12.490862 344.657257,28.861956 
	C345.000000,32.030594 345.000000,35.061188 344.663635,38.686813 
	C343.087494,42.786427 341.847687,46.291016 340.607880,49.795601 
z"/>
<path fill="#56C3BD" opacity="1.000000" stroke="none" 
	d="
M139.987656,64.774712 
	C139.535767,64.806137 139.083862,64.837555 138.206421,64.681602 
	C137.468872,64.324989 137.221359,64.406723 137.038315,64.739418 
	C134.968857,64.780251 132.899399,64.821083 130.315521,64.637283 
	C129.667633,64.242844 129.500961,64.117035 129.301056,64.035225 
	C129.200439,48.686150 129.099823,33.337074 129.229416,17.308796 
	C129.035995,14.995410 128.400955,13.382897 128.230774,11.722732 
	C127.818672,7.702595 121.638771,6.839054 123.189545,1.819291 
	C123.633186,1.501672 123.836533,1.268204 124.000000,1.000000 
	C129.022095,1.000000 134.044189,1.000000 139.532898,1.468657 
	C140.001007,22.617857 140.002502,43.298401 139.999146,64.177994 
	C139.994308,64.377045 139.987656,64.774712 139.987656,64.774712 
z"/>
<path fill="#12B5DF" opacity="1.000000" stroke="none" 
	d="
M297.971649,84.123253 
	C300.025482,84.076172 302.079285,84.029099 304.567200,84.417145 
	C305.573242,86.849533 306.145233,88.846802 306.704529,90.799858 
	C310.244324,90.548981 314.121552,90.274185 318.052704,90.343414 
	C319.068634,91.128174 320.030670,91.568901 320.999146,92.361969 
	C321.669312,93.473267 322.333069,94.232224 323.000427,95.280624 
	C323.005493,95.955780 323.006958,96.341484 322.596375,96.707359 
	C317.683044,96.407112 313.181763,96.126694 308.447388,95.831749 
	C308.254639,99.474663 308.108490,102.237183 307.575989,105.055038 
	C302.855560,108.885994 305.454529,113.993835 304.845734,118.446671 
	C304.601685,120.231476 306.337982,122.287033 307.404236,124.541306 
	C307.812866,127.441605 308.522858,130.127075 308.031372,132.570908 
	C307.429993,135.560989 308.775055,136.000076 310.721283,136.412369 
	C307.897614,136.896667 306.538361,138.094086 306.996399,140.824203 
	C307.347626,142.917648 307.654877,145.018478 307.531250,147.123749 
	C303.720551,147.420990 300.360260,147.710480 297.000000,148.000000 
	C296.555542,148.000000 296.111115,148.000000 295.317444,147.790344 
	C294.905090,147.288391 294.743622,147.068192 294.483856,146.920105 
	C294.467224,146.473755 294.450592,146.027405 294.795410,145.229828 
	C295.438721,144.585999 295.720581,144.293411 296.298004,143.705582 
	C296.709961,125.837082 296.835052,108.263863 296.903015,90.690430 
	C296.905182,90.129677 296.320801,89.566658 295.791321,89.009384 
	C295.572723,89.014076 295.136017,89.035774 295.045227,88.834579 
	C294.868988,88.340431 294.704071,88.102623 294.459656,87.919952 
	C294.444702,87.532478 294.429749,87.144997 294.623291,86.440315 
	C294.831757,86.123108 295.166779,86.002434 295.464539,85.971313 
	C296.498779,85.334541 297.235199,84.728897 297.971649,84.123253 
z"/>
<path fill="#32BCD0" opacity="1.000000" stroke="none" 
	d="
M233.000000,148.000000 
	C229.969406,148.000000 226.938812,148.000000 223.455429,147.750519 
	C223.002640,147.501038 223.004501,147.002075 223.299118,146.706024 
	C223.719055,145.933716 223.953186,145.457626 223.953949,144.981171 
	C223.982086,127.388847 224.005386,109.796425 223.956818,92.204224 
	C223.953888,91.140007 223.355927,90.077438 222.782623,89.005920 
	C222.362183,88.994926 222.193970,88.992119 222.021225,88.737885 
	C222.011353,88.318901 222.006012,88.151337 222.187836,87.735359 
	C223.249603,86.991638 224.124207,86.496315 225.432129,86.001030 
	C228.910095,86.333534 231.954742,86.666008 235.005341,87.353638 
	C237.451157,90.524811 235.615646,92.746643 233.751556,95.189034 
	C233.325012,96.252121 233.145065,97.124962 232.887268,98.375511 
	C233.897842,97.779144 234.512466,97.416428 235.014633,97.507584 
	C234.902161,110.210991 234.902161,122.460526 234.902161,135.094833 
	C239.047119,135.094833 242.525223,135.094833 245.998657,135.317902 
	C245.993988,135.540970 245.981186,135.987000 245.553558,135.989975 
	C243.414688,135.998627 241.703430,136.004318 239.661804,136.007782 
	C238.891022,136.006927 238.450607,136.008286 237.705505,136.133926 
	C233.796463,136.323395 232.471481,138.117599 232.948395,141.676071 
	C233.226212,143.749115 232.999634,145.889771 233.000000,148.000000 
M233.965302,121.187393 
	C233.965302,115.806877 233.965302,110.426369 233.965302,105.045853 
	C233.732010,105.048882 233.498734,105.051903 233.265442,105.054932 
	C233.265442,112.008247 233.265442,118.961563 233.265442,125.914879 
	C233.441986,125.918945 233.618530,125.923019 233.795074,125.927094 
	C233.851791,124.644371 233.908508,123.361656 233.965302,121.187393 
M233.404388,131.482697 
	C233.404388,131.482697 233.516708,131.412079 233.404388,131.482697 
z"/>
<path fill="#F9FDFD" opacity="1.000000" stroke="none" 
	d="
M123.531342,1.000000 
	C123.836533,1.268204 123.633186,1.501672 122.846481,1.918779 
	C119.599152,9.115171 116.895325,16.093189 114.053612,23.414288 
	C111.935524,29.484848 109.955322,35.212326 107.638123,40.998955 
	C106.571732,40.274197 105.842323,39.490299 105.063217,38.425724 
	C104.722389,37.445683 104.431252,36.746319 104.116280,35.703686 
	C103.744232,34.551777 103.396019,33.743137 103.027817,32.965630 
	C103.007828,32.996758 103.076134,32.968323 103.063370,32.723583 
	C103.050598,32.478844 102.880112,32.019310 102.891602,31.729317 
	C102.628357,30.947222 102.353622,30.455118 102.059662,29.582840 
	C98.693634,19.801779 95.346817,10.400889 92.000000,1.000000 
	C102.354225,1.000000 112.708458,1.000000 123.531342,1.000000 
z"/>
<path fill="#8ECDA4" opacity="1.000000" stroke="none" 
	d="
M1.000001,110.458069 
	C3.256215,105.460838 5.404891,100.863121 7.827196,96.414398 
	C8.670501,94.865623 10.190130,93.685089 11.713012,92.575409 
	C13.677631,95.282158 16.663782,97.706429 16.745855,100.225319 
	C17.058725,109.827667 16.215746,119.461510 16.258923,129.081543 
	C16.278913,133.535904 17.344103,137.985580 17.586990,142.388611 
	C15.789165,141.271301 14.339784,140.202774 13.124460,138.994705 
	C13.574866,138.572067 13.791214,138.288940 14.144165,137.949585 
	C14.185193,137.926361 14.089618,137.959351 13.756454,138.121704 
	C13.301440,138.537521 13.084016,138.824005 12.559866,138.972717 
	C9.884687,135.967621 7.221279,133.288559 5.235135,130.177185 
	C3.439024,127.363503 2.382594,124.077644 1.000000,121.000000 
	C1.000000,117.638710 1.000000,114.277428 1.000001,110.458069 
z"/>
<path fill="#69C7B6" opacity="1.000000" stroke="none" 
	d="
M91.666672,1.000000 
	C95.346817,10.400889 98.693634,19.801779 101.751045,29.735104 
	C100.296112,33.715073 98.718407,37.203239 101.439209,39.293724 
	C99.500420,41.738438 97.631210,44.095417 95.762001,46.452400 
	C92.403961,36.804058 89.045921,27.155718 85.404373,17.298077 
	C85.254921,16.504761 85.211136,15.578771 85.555717,15.399568 
	C86.679893,14.814925 87.945778,14.502763 89.157143,14.085777 
	C88.996056,13.544564 88.834961,13.003352 88.673874,12.462139 
	C87.208107,12.462139 85.742340,12.462139 84.314743,12.462139 
	C86.283829,8.693454 88.103004,5.211686 89.961090,1.364959 
	C90.444443,1.000000 90.888893,1.000000 91.666672,1.000000 
z"/>
<path fill="#FAFDFC" opacity="1.000000" stroke="none" 
	d="
M1.000000,121.468658 
	C2.382594,124.077644 3.439024,127.363503 5.235135,130.177185 
	C7.221279,133.288559 9.884687,135.967621 12.624420,138.920502 
	C12.995701,139.006058 12.890407,139.134232 12.890405,139.134232 
	C14.339784,140.202774 15.789165,141.271301 17.781301,142.647766 
	C21.149130,144.090912 23.974201,145.226120 27.021120,146.563599 
	C27.825518,146.904648 28.408064,147.043442 28.993301,147.386673 
	C28.995995,147.591110 29.000000,148.000000 29.000000,148.000000 
	C19.741560,148.000000 10.483120,148.000000 1.000000,148.000000 
	C1.000000,139.313736 1.000000,130.625534 1.000000,121.468658 
z"/>
<path fill="#0AB5DF" opacity="1.000000" stroke="none" 
	d="
M307.981689,147.116013 
	C307.654877,145.018478 307.347626,142.917648 306.996399,140.824203 
	C306.538361,138.094086 307.897614,136.896667 311.180603,136.345825 
	C316.231903,135.998108 320.538818,135.961121 325.274902,135.945648 
	C326.800079,137.000366 328.610229,137.894531 328.844055,139.095596 
	C329.338074,141.632904 329.007965,144.330688 329.000397,147.221802 
	C328.989899,147.653992 328.994965,147.826996 329.000000,148.000000 
	C326.629425,148.000000 324.258881,148.000000 321.124573,147.747299 
	C316.234467,147.368408 312.108063,147.242218 307.981689,147.116013 
M323.899780,145.020355 
	C323.608398,145.141602 323.314728,145.258224 323.032410,145.397781 
	C323.018311,145.404755 323.100433,145.708282 323.141022,145.709076 
	C324.072784,145.727722 325.005005,145.723450 325.937134,145.723450 
	C325.928284,145.558365 325.919403,145.393265 325.910553,145.228180 
	C325.440369,145.154114 324.970184,145.080032 323.899780,145.020355 
z"/>
<path fill="#7ECAA9" opacity="1.000000" stroke="none" 
	d="
M34.681046,13.221930 
	C33.877888,9.470899 33.438854,5.694804 32.999908,1.459355 
	C39.021152,1.000000 45.042305,1.000000 51.531731,1.000000 
	C52.866489,13.292352 52.866489,13.292352 39.386379,12.933105 
	C38.549377,12.842218 38.266457,12.973007 37.983536,13.103797 
	C37.004082,13.134820 36.024624,13.165842 34.681046,13.221930 
z"/>
<path fill="#8DCDA5" opacity="1.000000" stroke="none" 
	d="
M16.528801,1.000000 
	C17.516027,4.798951 18.032055,8.597903 18.778603,12.709914 
	C13.318257,13.021508 7.627392,13.020041 1.468263,13.009287 
	C1.000000,9.064348 1.000000,5.128696 1.000000,1.000000 
	C6.018118,1.000000 11.037861,1.000000 16.528801,1.000000 
z"/>
<path fill="#2ABAD1" opacity="1.000000" stroke="none" 
	d="
M233.464645,148.000000 
	C232.999634,145.889771 233.226212,143.749115 232.948395,141.676071 
	C232.471481,138.117599 233.796463,136.323395 237.849167,136.357361 
	C238.862381,136.307693 239.427277,136.158844 239.992172,136.009995 
	C241.703430,136.004318 243.414688,135.998627 245.777222,136.283005 
	C247.270798,138.695419 248.513412,140.775574 248.743958,142.962433 
	C248.827621,143.756027 246.493561,144.804504 245.432602,145.607986 
	C245.843216,146.234619 246.421616,147.117310 247.000000,148.000000 
	C242.643097,148.000000 238.286194,148.000000 233.464645,148.000000 
z"/>
<path fill="#26BAD6" opacity="1.000000" stroke="none" 
	d="
M247.375000,148.000000 
	C246.421616,147.117310 245.843216,146.234619 245.432602,145.607986 
	C246.493561,144.804504 248.827621,143.756027 248.743958,142.962433 
	C248.513412,140.775574 247.270798,138.695419 246.204834,136.280029 
	C245.981186,135.987000 245.993988,135.540970 246.396469,135.242828 
	C249.815704,134.276810 252.832443,133.608932 256.167847,133.093552 
	C257.020508,134.914444 257.554535,136.582855 258.094421,138.269684 
	C258.898285,137.992905 260.098907,137.579514 260.217346,137.538742 
	C261.419464,139.894989 262.211578,141.447525 263.003662,143.000076 
	C258.792114,144.441040 254.580566,145.882004 250.184509,147.661499 
	C249.250000,148.000000 248.500000,148.000000 247.375000,148.000000 
z"/>
<path fill="#F9F9FE" opacity="1.000000" stroke="none" 
	d="
M181.004211,146.102295 
	C181.002975,146.524002 181.001755,146.945724 181.000275,147.683716 
	C145.645767,148.000000 110.291542,148.000000 74.470314,147.798828 
	C74.003311,147.597641 74.008362,147.195328 74.455170,147.140335 
	C77.601173,147.001144 80.300369,146.916946 83.464745,146.891327 
	C90.632401,146.910233 97.334877,146.870529 104.472900,146.890854 
	C107.248642,146.917831 109.588829,146.884766 112.380089,146.920532 
	C115.560631,146.944778 118.290100,146.900208 121.459625,146.906250 
	C124.262749,146.923538 126.625809,146.890198 129.426300,146.924683 
	C131.927185,146.950287 133.990631,146.908096 136.513397,146.919342 
	C141.644501,146.927811 146.316254,146.882843 151.322983,146.897858 
	C152.107407,146.913986 152.556885,146.870117 153.470352,146.893219 
	C161.652039,146.821075 169.369705,146.681915 177.479065,146.489670 
	C178.915237,146.325165 179.959732,146.213730 181.004211,146.102295 
z"/>
<path fill="#F5FBFB" opacity="1.000000" stroke="none" 
	d="
M329.471191,148.000000 
	C328.994965,147.826996 328.989899,147.653992 329.343506,147.117935 
	C335.309174,145.089340 340.511108,142.872772 343.241119,136.758560 
	C343.693726,135.716446 343.910706,134.889496 344.345367,134.041077 
	C344.563019,134.019623 345.000000,134.000000 345.000000,134.000000 
	C345.000000,138.596680 345.000000,143.193359 345.000000,148.000000 
	C339.982086,148.000000 334.962250,148.000000 329.471191,148.000000 
z"/>
<path fill="#FCFEFE" opacity="1.000000" stroke="none" 
	d="
M345.000000,117.000000 
	C345.000000,117.750000 345.000000,118.500000 344.683899,119.485596 
	C342.282104,118.089798 340.196381,116.458397 338.541992,115.164391 
	C338.345215,113.202858 338.193390,111.689362 338.138550,109.926903 
	C338.507355,109.455864 338.779205,109.233780 339.278290,108.865707 
	C339.639008,108.393318 339.772491,108.066933 339.960876,107.444595 
	C340.267944,106.398529 340.520050,105.648422 340.859558,104.936783 
	C340.946960,104.975250 341.127075,105.038513 341.275879,104.953125 
	C341.490112,104.775352 341.629761,104.655106 341.607452,104.595657 
	C341.532806,104.396774 341.400177,104.219650 341.241821,103.692490 
	C341.291748,102.904770 341.389679,102.458748 341.652649,101.701996 
	C342.542175,99.925545 343.266663,98.459831 343.991150,96.994110 
	C343.991150,96.994110 343.999939,96.999969 344.002625,97.441650 
	C343.534912,102.982025 343.064484,108.080719 342.547058,113.688515 
	C342.601074,113.695374 343.800537,113.847687 345.000000,114.000000 
	C345.000000,114.000000 345.000000,114.500000 344.775665,114.895981 
	C344.700897,115.861298 344.850464,116.430649 345.000000,117.000000 
z"/>
<path fill="#47C8BC" opacity="1.000000" stroke="none" 
	d="
M140.003998,63.978943 
	C140.002502,43.298401 140.001007,22.617857 139.999756,1.468657 
	C140.000000,1.000000 140.500000,1.000000 140.750153,1.468657 
	C140.994049,22.620996 140.987793,43.304680 140.737213,63.990444 
	C140.492889,63.992527 140.003998,63.978943 140.003998,63.978943 
z"/>
<path fill="#5CBEC1" opacity="1.000000" stroke="none" 
	d="
M140.981537,63.988361 
	C140.987793,43.304680 140.994049,22.620996 141.000153,1.468657 
	C141.000000,1.000000 141.500000,1.000000 141.750061,1.468657 
	C142.013000,22.616919 142.025864,43.296524 141.774475,63.983364 
	C141.334015,63.989857 141.157791,63.989109 140.981537,63.988361 
z"/>
<path fill="#49C4B7" opacity="1.000000" stroke="none" 
	d="
M142.038727,63.976128 
	C142.025864,43.296524 142.013000,22.616919 142.000061,1.468657 
	C142.000000,1.000000 142.500000,1.000000 142.750000,1.000000 
	C143.007401,21.684755 143.014832,42.369511 142.731598,63.516571 
	C142.440933,63.978870 142.038727,63.976128 142.038727,63.976128 
z"/>
<path fill="#EFF8F9" opacity="1.000000" stroke="none" 
	d="
M338.041565,110.175873 
	C338.193390,111.689362 338.345215,113.202858 338.541992,115.164391 
	C340.196381,116.458397 342.282104,118.089798 344.683899,119.860596 
	C345.000000,122.041664 345.000000,124.083336 344.781860,126.560715 
	C344.563721,126.996429 344.128052,127.019287 344.047668,126.673538 
	C342.715912,124.187866 341.464478,122.047928 340.058899,119.595184 
	C337.723114,118.069695 335.541473,116.857010 333.329803,115.649246 
	C333.299744,115.654160 333.245422,115.681740 333.083466,115.450974 
	C332.339447,114.826981 331.757385,114.433769 331.128754,114.033577 
	C331.082184,114.026604 331.091431,114.120300 331.340088,114.076385 
	C331.810394,113.795792 332.032043,113.559120 332.218994,113.246384 
	C332.184296,113.170311 332.177643,113.337395 332.499878,113.320251 
	C333.521698,112.863586 334.221283,112.424072 335.214539,111.900848 
	C336.352692,111.270050 337.197144,110.722961 338.041565,110.175873 
z"/>
<path fill="#F4FBF9" opacity="1.000000" stroke="none" 
	d="
M74.008362,147.195343 
	C74.008362,147.195328 74.003311,147.597641 74.001656,147.798828 
	C59.312439,148.000000 44.624878,148.000000 29.468658,148.000000 
	C29.000000,148.000000 28.995995,147.591110 29.450825,147.326553 
	C33.296387,146.988754 36.687122,146.915512 40.393051,146.893738 
	C41.132332,146.914139 41.556419,146.883072 42.419662,146.917938 
	C44.929214,146.942322 46.999615,146.900772 49.498379,146.909485 
	C51.946880,146.927643 53.967014,146.895554 56.438377,146.927109 
	C59.926479,146.955902 62.963348,146.921051 66.442627,146.937714 
	C69.259483,147.057922 71.633919,147.126633 74.008362,147.195343 
z"/>
<path fill="#EAF8FA" opacity="1.000000" stroke="none" 
	d="
M340.925720,49.937878 
	C341.847687,46.291016 343.087494,42.786427 344.663635,39.140923 
	C345.000000,43.356899 345.000000,47.713799 345.000000,52.535347 
	C343.747864,52.026714 342.495728,51.053432 340.925720,49.937878 
z"/>
<path fill="#EFF8F9" opacity="1.000000" stroke="none" 
	d="
M345.000000,113.532394 
	C343.800537,113.847687 342.601074,113.695374 342.547058,113.688515 
	C343.064484,108.080719 343.534912,102.982025 344.006012,97.445023 
	C344.006683,97.006714 344.503357,97.003738 344.751678,97.001869 
	C345.000000,102.354927 345.000000,107.709862 345.000000,113.532394 
z"/>
<path fill="#65CDEB" opacity="1.000000" stroke="none" 
	d="
M307.531250,147.123749 
	C312.108063,147.242218 316.234467,147.368408 320.680420,147.747299 
	C313.312408,148.000000 305.624847,148.000000 297.468628,148.000000 
	C300.360260,147.710480 303.720551,147.420990 307.531250,147.123749 
z"/>
<path fill="#A3E5EF" opacity="1.000000" stroke="none" 
	d="
M344.128052,127.019287 
	C344.128052,127.019287 344.563721,126.996429 344.781860,126.998215 
	C345.000000,129.042313 345.000000,131.084641 345.000000,133.563477 
	C345.000000,134.000000 344.563019,134.019623 344.300903,133.659042 
	C344.000702,132.531708 343.962585,131.764954 343.945801,130.665543 
	C343.932037,129.890320 343.896973,129.447769 343.920654,128.666534 
	C343.917114,127.875961 343.854797,127.424049 343.882568,126.939857 
	C343.972656,126.907570 344.128052,127.019287 344.128052,127.019287 
z"/>
<path fill="#37C4CC" opacity="1.000000" stroke="none" 
	d="
M223.004501,147.002075 
	C223.004501,147.002075 223.002640,147.501038 223.001312,147.750519 
	C222.250000,148.000000 221.500000,148.000000 220.375000,148.000000 
	C220.197815,147.479172 220.395630,146.958344 221.024734,146.215256 
	C221.637955,145.995728 221.819901,145.998474 222.250229,146.001129 
	C222.498627,146.001038 222.995453,145.999390 222.997375,146.250061 
	C223.001022,146.667847 223.002762,146.834961 223.004501,147.002075 
z"/>
<path fill="#EFF8F9" opacity="1.000000" stroke="none" 
	d="
M345.000000,116.666672 
	C344.850464,116.430649 344.700897,115.861298 344.775665,115.145981 
	C345.000000,115.444443 345.000000,115.888893 345.000000,116.666672 
z"/>
<path fill="#65CDEB" opacity="1.000000" stroke="none" 
	d="
M294.327850,147.174377 
	C294.743622,147.068192 294.905090,147.288391 294.984131,147.790344 
	C295.000000,148.000000 294.500000,148.000000 294.250000,148.000000 
	C294.057251,147.809555 294.114532,147.619095 294.327850,147.174377 
z"/>
<path fill="#30BBCE" opacity="1.000000" stroke="none" 
	d="
M233.001404,65.836884 
	C227.970657,65.881874 222.939896,65.926865 217.262527,65.694916 
	C216.077682,65.278748 215.539444,65.139526 215.000839,64.531631 
	C215.963394,44.053673 212.844589,23.908834 217.422195,4.003350 
	C220.222107,3.699048 222.594955,3.396820 224.995178,2.950272 
	C225.022568,2.805952 225.045227,2.513030 225.045227,2.513030 
	C227.750076,2.455171 230.454926,2.397312 233.589935,2.774026 
	C234.017471,3.803231 234.014847,4.397864 233.791443,5.255875 
	C232.497772,5.923238 231.424850,6.327224 229.109055,7.199194 
	C231.301483,7.649525 232.151657,7.824152 232.947922,8.414176 
	C232.596008,10.942987 232.050949,13.055102 232.039810,15.170026 
	C231.963821,29.616970 231.953751,44.064796 232.044968,58.511566 
	C232.060379,60.955250 232.667603,63.395199 233.001404,65.836884 
M224.414246,5.483494 
	C224.414246,5.483494 224.522781,5.419379 224.414246,5.483494 
z"/>
<path fill="#20B9D6" opacity="1.000000" stroke="none" 
	d="
M273.003601,65.830467 
	C267.977997,65.878777 262.952362,65.927078 257.401184,65.503723 
	C256.583771,63.246647 256.045105,61.462151 256.038391,59.675659 
	C255.974213,42.602921 256.000031,25.529844 256.000031,8.939426 
	C253.634933,7.946046 251.318695,6.973182 249.002991,5.750029 
	C249.003586,5.332886 249.003632,5.166031 249.469177,4.999317 
	C254.955780,5.318983 259.973907,5.800878 264.999146,5.892109 
	C267.661987,5.940451 270.337158,5.310030 273.450226,4.989106 
	C276.262482,4.994529 278.631226,4.996875 280.913605,5.386336 
	C280.167053,6.173926 279.432129,7.007066 278.858368,6.907864 
	C273.187012,5.927334 272.875671,9.136120 272.923462,13.562851 
	C273.111511,30.983648 273.002380,48.407654 273.003601,65.830467 
z"/>
<path fill="#40BFC6" opacity="1.000000" stroke="none" 
	d="
M171.910645,9.840515 
	C175.675125,7.803878 179.439621,5.767240 183.459381,4.014430 
	C182.967545,5.314479 182.220428,6.330700 181.473297,7.346921 
	C182.102402,7.638432 182.731522,7.929942 183.360641,8.221453 
	C183.908157,6.556468 184.455673,4.891485 185.003189,3.226501 
	C185.774857,3.122601 186.546539,3.018701 187.747437,3.404653 
	C189.784821,7.235793 192.690918,10.541786 192.782898,13.924301 
	C193.253281,31.222187 192.997818,48.539810 192.996170,65.850533 
	C185.730530,66.055679 179.092941,64.232376 173.252884,59.195412 
	C173.815918,58.431725 174.406036,58.218521 175.139191,58.290024 
	C177.651947,59.010788 180.021667,59.446842 182.391403,59.882896 
	C182.440475,59.253315 182.489563,58.623730 182.538651,57.994144 
	C180.027588,57.994144 177.516541,57.994144 175.002914,57.580826 
	C175.326187,53.382011 175.870148,49.600170 175.933731,45.810276 
	C176.078598,37.175358 176.092209,28.533895 175.878143,19.902061 
	C175.846741,18.635929 174.277954,17.407921 173.359528,16.073658 
	C173.946335,15.561868 174.860336,14.764724 175.363388,14.325978 
	C174.026718,12.589515 172.968689,11.215015 171.910645,9.840515 
z"/>
<path fill="#0BB5E0" opacity="1.000000" stroke="none" 
	d="
M313.001221,5.998960 
	C317.159180,5.821846 320.947479,5.566382 325.263367,7.515455 
	C329.867126,9.594515 329.115112,12.052283 328.552948,15.269116 
	C328.142029,17.620304 327.100250,19.930199 327.071167,22.267593 
	C326.918884,34.512497 327.000000,46.760303 327.000000,59.085114 
	C325.649017,58.765118 323.774994,58.321236 321.568848,57.798687 
	C321.350677,60.264133 321.182922,62.159927 321.009949,64.403923 
	C319.236633,65.098740 317.468506,65.445351 315.046753,65.534332 
	C313.266449,64.082779 311.321472,62.991714 311.156250,61.676987 
	C310.476562,56.268478 310.190948,50.796116 310.037781,45.339455 
	C309.853394,38.771599 310.675507,32.089581 309.731873,25.651945 
	C308.687714,18.528625 310.026031,12.234881 313.001221,5.998960 
z"/>
<path fill="#21BAD6" opacity="1.000000" stroke="none" 
	d="
M263.293701,142.975967 
	C262.211578,141.447525 261.419464,139.894989 260.217346,137.538742 
	C260.098907,137.579514 258.898285,137.992905 258.094421,138.269684 
	C257.554535,136.582855 257.020508,134.914444 256.338013,132.789703 
	C263.288055,127.779999 265.752533,120.902267 264.681091,113.034340 
	C263.623230,105.266029 258.827148,99.920059 250.989090,98.395882 
	C245.810577,97.388878 240.421768,97.463409 235.127106,97.053711 
	C234.512466,97.416428 233.897842,97.779144 232.887268,98.375511 
	C233.145065,97.124962 233.325012,96.252121 234.218231,95.189957 
	C238.741791,94.996117 242.580475,95.253036 246.346695,94.843521 
	C247.643188,94.702545 248.758896,92.899094 249.957199,91.855087 
	C248.964355,90.894821 248.123001,89.628899 246.943863,89.044495 
	C245.080185,88.120827 242.990036,87.654129 240.996613,86.661446 
	C240.996307,85.885284 240.995102,85.441727 241.311462,84.998978 
	C242.403748,84.766693 243.178452,84.533607 243.953156,84.300522 
	C244.771973,84.310707 245.590775,84.320885 247.044724,84.601547 
	C248.443619,84.908997 249.207382,84.945953 249.971146,84.982910 
	C259.440247,85.755173 267.805145,88.972321 273.413208,96.981865 
	C278.407288,104.114548 281.348694,112.611763 278.711792,120.837074 
	C276.584106,127.474022 276.939392,136.538956 267.341278,139.706100 
	C266.577148,139.994934 266.291748,139.998291 265.986389,139.739441 
	C265.657959,139.224350 265.349426,138.963425 265.040863,138.702484 
	C264.908356,138.981842 264.775818,139.261200 264.643280,139.540558 
	C265.093414,139.695786 265.543579,139.850998 266.027405,140.308212 
	C266.100098,140.809021 266.139069,141.007812 266.178009,141.206604 
	C266.178009,141.206604 266.104248,141.143585 265.888458,141.198807 
	C265.461639,141.534393 265.250610,141.814758 265.039581,142.095123 
	C264.554321,142.380692 264.069031,142.666275 263.293701,142.975967 
M262.364197,132.566589 
	C262.876038,132.833313 263.387878,133.100021 263.899719,133.366745 
	C264.121155,132.834061 264.342590,132.301376 264.564026,131.768692 
	C263.920319,131.860443 263.276642,131.952179 262.364197,132.566589 
M246.283218,86.965614 
	C246.486542,86.719460 246.689850,86.473305 246.893173,86.227142 
	C246.296616,86.232353 245.700043,86.237556 245.103485,86.242767 
	C245.317459,86.484482 245.531433,86.726196 246.283218,86.965614 
z"/>
<path fill="#1AB7D8" opacity="1.000000" stroke="none" 
	d="
M273.445007,65.903786 
	C273.002380,48.407654 273.111511,30.983648 272.923462,13.562851 
	C272.875671,9.136120 273.187012,5.927334 278.858368,6.907864 
	C279.432129,7.007066 280.167053,6.173926 281.357758,5.385375 
	C284.258881,4.998322 286.629425,4.999344 288.946106,5.341989 
	C288.092560,6.436911 287.292969,7.190210 287.437195,7.054331 
	C287.652618,11.432576 287.904755,14.961146 287.986481,18.493660 
	C288.351501,34.270782 288.667908,50.049026 288.563324,65.895081 
	C285.764038,66.035812 283.403320,66.108330 281.042572,66.180847 
	C278.657196,66.112938 276.271790,66.045021 273.445007,65.903786 
z"/>
<path fill="#5DC5B7" opacity="1.000000" stroke="none" 
	d="
M121.019577,146.855637 
	C118.290100,146.900208 115.560631,146.944778 112.119431,146.668945 
	C109.938194,146.230331 108.468689,146.112106 106.999527,145.525879 
	C107.000122,138.405045 106.912376,131.750595 107.034752,125.100014 
	C107.104317,121.319656 107.754875,117.543785 107.725830,113.769112 
	C107.668541,106.322128 106.543907,98.790581 107.363022,91.461922 
	C107.917923,86.497261 106.034203,86.261169 102.470856,85.920685 
	C100.619789,85.743797 98.847939,84.737984 97.090347,83.936935 
	C97.140396,83.767250 97.226791,83.424126 97.226791,83.424118 
	C104.876762,83.429161 112.526733,83.434204 120.612419,83.812370 
	C121.026474,84.453644 121.015793,84.722221 120.750267,85.241211 
	C120.650322,96.532990 120.938805,107.575340 120.888542,118.616158 
	C120.877190,121.111992 119.053131,123.630646 119.162407,126.089973 
	C119.457748,132.736526 120.344727,139.356812 120.998856,146.204636 
	C121.000717,146.421768 121.019577,146.855637 121.019577,146.855637 
z"/>
<path fill="#83CCAA" opacity="1.000000" stroke="none" 
	d="
M40.077850,146.842270 
	C36.687122,146.915512 33.296387,146.988754 29.448132,147.122116 
	C28.408064,147.043442 27.825518,146.904648 27.231447,146.222321 
	C28.146519,143.337189 29.793203,141.019714 29.872591,138.649750 
	C30.183578,129.366058 30.071629,120.065056 29.976919,110.771912 
	C29.902361,103.456268 29.622393,96.142723 29.419643,88.284805 
	C29.710762,88.193008 31.121529,87.748169 32.977928,87.162819 
	C30.556946,86.074112 28.761639,85.266777 26.966333,84.459442 
	C33.665424,84.077751 40.364517,83.696068 47.379799,83.760788 
	C45.678875,84.650444 43.661770,85.093704 42.066509,85.444267 
	C42.392597,87.967621 42.947765,90.315208 42.959095,92.665421 
	C43.036491,108.725876 43.029762,124.787010 42.955944,140.847504 
	C42.948040,142.566635 42.334351,144.282974 41.722935,146.015854 
	C40.988747,146.301483 40.533298,146.571869 40.077850,146.842270 
z"/>
<path fill="#11B5DE" opacity="1.000000" stroke="none" 
	d="
M313.000854,5.748868 
	C310.026031,12.234881 308.687714,18.528625 309.731873,25.651945 
	C310.675507,32.089581 309.853394,38.771599 310.037781,45.339455 
	C310.190948,50.796116 310.476562,56.268478 311.156250,61.676987 
	C311.321472,62.991714 313.266449,64.082779 314.663940,65.504700 
	C314.506958,65.827385 314.079132,65.922043 312.866638,66.020348 
	C307.055511,65.957184 302.029114,65.890381 296.939941,65.427094 
	C296.918091,59.970688 296.989014,54.910797 296.994354,49.850838 
	C297.010101,34.901012 297.000000,19.951153 297.466858,5.000863 
	C302.955780,4.999808 307.977844,4.999200 312.999908,4.998591 
	C313.000122,5.165319 313.000305,5.332047 313.000854,5.748868 
z"/>
<path fill="#7BC9AC" opacity="1.000000" stroke="none" 
	d="
M42.001678,146.000610 
	C42.334351,144.282974 42.948040,142.566635 42.955944,140.847504 
	C43.029762,124.787010 43.036491,108.725876 42.959095,92.665421 
	C42.947765,90.315208 42.392597,87.967621 42.066509,85.444267 
	C43.661770,85.093704 45.678875,84.650444 47.822475,83.895744 
	C51.322701,83.504257 54.696438,83.424210 58.363949,83.800919 
	C55.933430,84.718033 53.209133,85.178391 50.484837,85.638756 
	C56.076576,86.730774 56.094803,90.500938 56.059032,94.771111 
	C55.916004,111.844337 56.000469,128.919464 55.587372,145.996185 
	C53.139328,146.285416 51.104668,146.572327 49.070011,146.859222 
	C46.999615,146.900772 44.929214,146.942322 42.426819,146.705246 
	C41.994820,146.426636 42.001678,146.000610 42.001678,146.000610 
z"/>
<path fill="#2ABBD0" opacity="1.000000" stroke="none" 
	d="
M233.451660,65.904427 
	C232.667603,63.395199 232.060379,60.955250 232.044968,58.511566 
	C231.953751,44.064796 231.963821,29.616970 232.039810,15.170026 
	C232.050949,13.055102 232.596008,10.942987 233.413467,8.414249 
	C235.260696,7.998991 236.588470,7.999021 237.916245,7.999127 
	C246.410736,7.999806 246.405884,7.999577 246.010941,16.167334 
	C245.962875,17.160912 246.000229,18.158682 246.000198,19.154510 
	C245.999893,31.270472 245.866699,43.388744 246.076859,55.501057 
	C246.144653,59.408131 245.814926,62.922859 243.004822,65.846191 
	C239.970520,65.888123 236.936203,65.930046 233.451660,65.904427 
z"/>
<path fill="#88CCA7" opacity="1.000000" stroke="none" 
	d="
M26.684772,84.336716 
	C28.761639,85.266777 30.556946,86.074112 32.977928,87.162819 
	C31.121529,87.748169 29.710762,88.193008 29.419643,88.284805 
	C29.622393,96.142723 29.902361,103.456268 29.976919,110.771912 
	C30.071629,120.065056 30.183578,129.366058 29.872591,138.649750 
	C29.793203,141.019714 28.146519,143.337189 27.009598,146.020050 
	C23.974201,145.226120 21.149130,144.090912 18.129749,142.696533 
	C17.344103,137.985580 16.278913,133.535904 16.258923,129.081543 
	C16.215746,119.461510 17.058725,109.827667 16.745855,100.225319 
	C16.663782,97.706429 13.677631,95.282158 12.023086,92.450623 
	C16.815086,89.462540 21.609148,86.838272 26.684772,84.336716 
M25.413631,88.483162 
	C25.413631,88.483162 25.523291,88.418144 25.413631,88.483162 
z"/>
<path fill="#6BC8B4" opacity="1.000000" stroke="none" 
	d="
M104.037354,146.830826 
	C97.334877,146.870529 90.632401,146.910233 83.379745,146.526596 
	C82.225677,144.967697 81.180344,143.865387 81.091919,142.691025 
	C80.632652,136.591934 80.136169,130.472534 80.178635,124.363853 
	C80.255257,113.343735 80.721886,102.326591 80.976349,91.307068 
	C81.005707,90.035675 80.721992,88.757057 80.666466,88.246002 
	C77.703644,86.992287 75.352364,85.997353 73.425415,85.001793 
	C76.228363,84.538345 78.606995,84.075516 80.985619,83.612686 
	C83.393402,83.537254 85.801186,83.461830 88.699623,83.756958 
	C90.040802,83.983398 90.891319,83.839287 91.741844,83.695175 
	C92.821198,83.563248 93.900558,83.431320 95.417290,83.509491 
	C95.854668,83.719582 95.908607,84.052078 95.609604,84.201309 
	C93.545059,85.733612 92.083473,86.634117 92.468224,89.815453 
	C93.273407,96.473190 93.030884,103.280411 92.916946,110.021133 
	C92.751732,119.795609 92.395836,129.568954 91.963982,139.335815 
	C91.788559,143.303238 93.990082,144.572464 97.358192,144.995438 
	C99.587059,145.275345 101.800697,145.676407 104.023033,146.225174 
	C104.024910,146.427124 104.037354,146.830826 104.037354,146.830826 
M88.482849,88.586220 
	C88.482849,88.586220 88.418236,88.477470 88.482849,88.586220 
z"/>
<path fill="#40BFC7" opacity="1.000000" stroke="none" 
	d="
M181.299133,145.913651 
	C179.959732,146.213730 178.915237,146.325165 177.458572,146.008621 
	C177.248383,142.950027 177.646439,140.317429 177.619934,137.689087 
	C177.469452,122.754379 177.222321,107.820625 176.995377,92.886734 
	C176.958130,90.434898 176.858032,87.984016 176.737762,85.405136 
	C176.688538,85.277573 176.691254,85.004128 177.079330,85.126694 
	C179.349182,85.481270 181.230972,85.713272 183.112747,85.945267 
	C183.909088,86.516762 184.705444,87.088249 185.751022,88.226562 
	C185.055222,91.969719 186.624573,94.372833 189.024658,95.804054 
	C191.662567,97.377098 191.791916,98.848198 191.379074,101.810081 
	C189.809662,113.069008 187.548355,124.502823 192.975449,134.913666 
	C190.058548,136.624084 186.987671,138.424789 183.916779,140.225510 
	C184.081070,140.645676 184.245361,141.065857 184.409637,141.486038 
	C185.316879,141.676239 186.224121,141.866455 187.131348,142.056656 
	C185.285583,143.279434 183.439819,144.502213 181.299133,145.913651 
z"/>
<path fill="#42BFCD" opacity="1.000000" stroke="none" 
	d="
M193.459045,65.919296 
	C192.997818,48.539810 193.253281,31.222187 192.782898,13.924301 
	C192.690918,10.541786 189.784821,7.235793 188.110077,3.556077 
	C192.080200,2.912457 196.116898,2.607264 200.590729,2.777761 
	C201.023575,4.165308 201.019318,5.077165 201.015396,6.375561 
	C204.658783,13.335259 204.022659,20.517952 204.002731,27.617992 
	C203.982193,34.939159 204.066193,42.261261 203.976913,49.581402 
	C203.903839,55.574047 202.946426,61.779037 209.008148,65.848877 
	C203.979401,65.895271 198.950653,65.941666 193.459045,65.919296 
z"/>
<path fill="#07B4E4" opacity="1.000000" stroke="none" 
	d="
M343.861908,129.005203 
	C343.896973,129.447769 343.932037,129.890320 343.691162,130.947083 
	C343.278687,133.365433 343.142120,135.169571 343.005524,136.973724 
	C340.511108,142.872772 335.309174,145.089340 329.359039,146.858765 
	C329.007965,144.330688 329.338074,141.632904 328.844055,139.095596 
	C328.610229,137.894531 326.800079,137.000366 325.527588,135.708679 
	C328.882141,134.612274 330.925995,132.111771 330.546661,128.772232 
	C330.321533,126.789917 328.191101,125.024010 327.027222,122.850296 
	C326.099579,121.267738 324.627777,120.147949 324.117065,118.691200 
	C323.123199,115.856583 322.668182,112.833046 322.287323,109.711151 
	C328.147003,106.327034 328.804413,104.092216 325.972229,97.840057 
	C326.443176,96.789848 326.997833,96.158989 327.239960,95.425034 
	C327.668701,94.125404 327.907379,92.763092 328.225586,91.427002 
	C326.857758,91.893906 325.404144,92.205910 324.159515,92.895287 
	C323.566833,93.223579 323.371918,94.270035 322.996796,94.991180 
	C322.333069,94.232224 321.669312,93.473267 321.016144,91.958954 
	C323.255188,90.133575 325.483673,89.063553 327.522583,88.084557 
	C326.078369,86.497894 320.973938,90.573715 321.040253,84.861885 
	C326.661438,86.026932 332.946899,84.858078 337.981445,90.103821 
	C339.295380,93.754265 340.188232,96.864571 340.805206,100.186066 
	C340.610260,101.897598 340.691223,103.397957 340.772156,104.898308 
	C340.520050,105.648422 340.267944,106.398529 339.732361,107.590950 
	C339.316315,108.359406 339.183685,108.685555 339.051056,109.011703 
	C338.779205,109.233780 338.507355,109.455864 338.138550,109.926910 
	C337.197144,110.722961 336.352692,111.270050 334.870728,111.904449 
	C333.548035,112.440315 332.862854,112.888863 332.177643,113.337402 
	C332.177643,113.337395 332.184296,113.170311 331.912048,113.136917 
	C331.426544,113.069115 331.213287,113.034706 331.005280,112.633392 
	C332.795258,110.460587 334.579956,108.654694 336.216766,106.998474 
	C334.576447,106.998474 332.791901,106.998474 330.969666,106.715057 
	C330.626740,106.110023 330.321564,105.788399 330.016388,105.466782 
	C329.835266,105.675896 329.654114,105.885010 329.472961,106.094124 
	C329.981567,106.398598 330.490173,106.703079 330.961365,107.354874 
	C329.705597,109.091743 328.487213,110.481308 326.771271,112.438347 
	C328.614594,112.683044 329.807281,112.841370 331.014465,113.280533 
	C331.049774,113.747681 331.070618,113.933990 331.091431,114.120300 
	C331.091431,114.120300 331.082184,114.026604 330.850830,114.198257 
	C331.494812,114.807190 332.370117,115.244469 333.245422,115.681747 
	C333.245422,115.681740 333.299744,115.654160 333.191376,116.005150 
	C331.877197,117.253891 330.671356,118.151642 329.378601,119.114120 
	C330.145386,120.383911 330.913818,121.656448 331.067627,121.911171 
	C334.670288,121.122055 337.441650,120.515022 340.213043,119.907990 
	C341.464478,122.047928 342.715912,124.187866 344.047668,126.673538 
	C344.128052,127.019287 343.972656,126.907570 343.705627,127.117386 
	C343.579681,127.886536 343.720795,128.445862 343.861908,129.005203 
M338.524719,103.633553 
	C338.470764,103.842613 338.416840,104.051682 338.362885,104.260735 
	C338.495209,104.126427 338.627533,103.992111 338.524719,103.633553 
z"/>
<path fill="#35BDCC" opacity="1.000000" stroke="none" 
	d="
M209.432205,65.909798 
	C202.946426,61.779037 203.903839,55.574047 203.976913,49.581402 
	C204.066193,42.261261 203.982193,34.939159 204.002731,27.617992 
	C204.022659,20.517952 204.658783,13.335259 201.385498,6.376835 
	C202.496307,5.993507 203.237350,5.995443 204.375671,5.998075 
	C206.177261,5.336659 207.581573,4.674548 209.430832,4.008426 
	C212.248886,4.004753 214.622009,4.005089 216.995117,4.005425 
	C212.844589,23.908834 215.963394,44.053673 214.998352,64.743668 
	C214.996262,65.424385 214.987930,65.848419 214.987930,65.848419 
	C213.277374,65.889191 211.566818,65.929955 209.432205,65.909798 
z"/>
<path fill="#76C9AD" opacity="1.000000" stroke="none" 
	d="
M80.539406,83.462784 
	C78.606995,84.075516 76.228363,84.538345 72.978134,85.000801 
	C69.563141,85.000427 67.019768,85.000427 65.104713,85.000427 
	C65.417389,98.685890 65.768661,111.434776 65.977341,124.186012 
	C66.101151,131.750839 66.000145,139.319351 66.000221,146.886200 
	C62.963348,146.921051 59.926479,146.955902 56.443626,146.709839 
	C55.997643,146.428955 56.000763,145.993896 56.000763,145.993896 
	C56.000469,128.919464 55.916004,111.844337 56.059032,94.771111 
	C56.094803,90.500938 56.076576,86.730774 50.484837,85.638756 
	C53.209133,85.178391 55.933430,84.718033 58.795044,83.942757 
	C65.985970,83.522858 73.039581,83.417870 80.539406,83.462784 
z"/>
<path fill="#26BAD3" opacity="1.000000" stroke="none" 
	d="
M243.464813,65.914719 
	C245.814926,62.922859 246.144653,59.408131 246.076859,55.501057 
	C245.866699,43.388744 245.999893,31.270472 246.000198,19.154510 
	C246.000229,18.158682 245.962875,17.160912 246.010941,16.167334 
	C246.405884,7.999577 246.410736,7.999806 237.916245,7.999127 
	C236.588470,7.999021 235.260696,7.998991 233.467377,7.998853 
	C232.151657,7.824152 231.301483,7.649525 229.109055,7.199194 
	C231.424850,6.327224 232.497772,5.923238 234.254669,5.257030 
	C239.291748,4.996159 243.644821,4.997512 248.107086,5.218180 
	C248.417130,5.710574 248.679184,5.898181 249.002441,6.000316 
	C251.318695,6.973182 253.634933,7.946046 256.000031,8.939426 
	C256.000031,25.529844 255.974213,42.602921 256.038391,59.675659 
	C256.045105,61.462151 256.583771,63.246647 256.938965,65.435059 
	C252.643112,65.886444 248.283966,65.934845 243.464813,65.914719 
z"/>
<path fill="#49C0C5" opacity="1.000000" stroke="none" 
	d="
M171.601212,9.977016 
	C172.968689,11.215015 174.026718,12.589515 175.363388,14.325978 
	C174.860336,14.764724 173.946335,15.561868 173.359528,16.073658 
	C174.277954,17.407921 175.846741,18.635929 175.878143,19.902061 
	C176.092209,28.533895 176.078598,37.175358 175.933731,45.810276 
	C175.870148,49.600170 175.326187,53.382011 175.000183,57.583706 
	C175.000046,57.999905 174.996140,58.005318 174.996140,58.005318 
	C174.406036,58.218521 173.815918,58.431725 173.056396,58.920334 
	C157.100174,48.330139 155.409180,23.424723 171.601212,9.977016 
z"/>
<path fill="#62C5B8" opacity="1.000000" stroke="none" 
	d="
M95.769608,46.784657 
	C97.631210,44.095417 99.500420,41.738438 101.439209,39.293724 
	C98.718407,37.203239 100.296112,33.715073 101.770264,30.115276 
	C102.353622,30.455118 102.628357,30.947222 102.744934,31.837200 
	C102.749893,32.479488 102.913017,32.723904 103.076134,32.968323 
	C103.076134,32.968323 103.007828,32.996758 103.012505,33.321724 
	C103.391495,34.446777 103.765808,35.246864 104.140114,36.046955 
	C104.431252,36.746319 104.722389,37.445683 105.028900,38.839989 
	C105.147850,40.872204 105.251427,42.209480 105.355003,43.546761 
	C105.749313,43.644100 106.143631,43.741444 106.537949,43.838783 
	C107.017006,42.872459 107.496056,41.906136 107.975113,40.939808 
	C109.955322,35.212326 111.935524,29.484848 114.297791,23.620598 
	C120.882515,23.761003 121.062119,28.671257 121.999542,32.999466 
	C122.000000,33.000000 122.001175,33.001068 122.031410,33.366310 
	C122.090820,33.974133 122.119987,34.216709 122.149147,34.459286 
	C119.044037,43.827423 115.938927,53.195557 112.251617,62.841904 
	C108.031029,62.484375 104.392639,61.848637 100.754242,61.212894 
	C100.754242,61.212894 100.763237,61.144730 100.833817,60.821613 
	C100.587013,59.995235 100.269630,59.491974 99.952248,58.988708 
	C99.953163,58.545376 99.954086,58.102047 100.415161,57.326469 
	C103.739029,57.274559 104.411697,55.467957 103.920113,53.278591 
	C103.536644,51.570801 102.460800,50.018475 101.692635,48.397057 
	C100.136147,49.261013 98.579659,50.124969 97.023178,50.988930 
	C96.607849,49.698261 96.192528,48.407589 95.769608,46.784657 
z"/>
<path fill="#3DBEC9" opacity="1.000000" stroke="none" 
	d="
M187.479599,142.029297 
	C186.224121,141.866455 185.316879,141.676239 184.409637,141.486038 
	C184.245361,141.065857 184.081070,140.645676 183.916779,140.225510 
	C186.987671,138.424789 190.058548,136.624084 192.975449,134.913666 
	C187.548355,124.502823 189.809662,113.069008 191.379074,101.810081 
	C191.791916,98.848198 191.662567,97.377098 189.024658,95.804054 
	C186.624573,94.372833 185.055222,91.969719 186.000229,88.438957 
	C198.641785,92.936760 205.618317,105.937714 203.546860,119.974304 
	C202.084808,129.881500 196.883865,137.382843 187.479599,142.029297 
z"/>
<path fill="#60C6BE" opacity="1.000000" stroke="none" 
	d="
M121.999084,32.998932 
	C121.062119,28.671257 120.882515,23.761003 114.435669,23.277517 
	C116.895325,16.093189 119.599152,9.115171 122.646049,2.037666 
	C121.638771,6.839054 127.818672,7.702595 128.230774,11.722732 
	C128.400955,13.382897 129.035995,14.995410 129.179352,16.846451 
	C128.561661,17.607107 128.224258,18.150909 127.344315,18.979427 
	C125.918762,22.215687 125.035751,25.167227 124.152748,28.118767 
	C124.152748,28.118769 124.149193,28.012491 123.857956,28.200518 
	C123.044174,29.925341 122.521629,31.462135 121.999084,32.998932 
z"/>
<path fill="#42C4BA" opacity="1.000000" stroke="none" 
	d="
M121.016090,84.991241 
	C121.015793,84.722221 121.026474,84.453644 121.050919,83.986877 
	C138.393845,83.760498 155.734009,83.732742 173.775833,83.891602 
	C174.770218,84.394966 175.062927,84.711723 174.910248,85.019104 
	C172.638824,85.337669 170.812805,85.665604 168.769287,86.103355 
	C168.279984,86.412628 168.092865,86.672966 167.554321,86.995293 
	C165.083237,86.995682 163.048233,86.994934 160.734604,86.706573 
	C157.970444,86.279488 155.484924,86.140015 152.599411,85.999985 
	C151.133560,85.999916 150.067703,86.000412 148.636047,86.000084 
	C147.178665,86.326134 146.087082,86.653000 144.613846,86.975639 
	C141.821274,86.314682 139.410324,85.657951 136.532623,84.998123 
	C131.049255,84.993767 126.032677,84.992508 121.016090,84.991241 
z"/>
<path fill="#1EB8D5" opacity="1.000000" stroke="none" 
	d="
M247.997894,4.998865 
	C243.644821,4.997512 239.291748,4.996159 234.475433,4.993651 
	C234.014847,4.397864 234.017471,3.803231 234.020416,2.913077 
	C246.727081,2.527882 259.433441,2.438210 272.583038,2.791525 
	C273.019775,3.818352 273.013245,4.402191 273.006744,4.986030 
	C270.337158,5.310030 267.661987,5.940451 264.999146,5.892109 
	C259.973907,5.800878 254.955780,5.318983 249.217712,4.999359 
	C248.333115,4.999129 248.165512,4.998997 247.997894,4.998865 
z"/>
<path fill="#0BB5E0" opacity="1.000000" stroke="none" 
	d="
M273.450226,4.989106 
	C273.013245,4.402191 273.019775,3.818352 273.028778,2.943825 
	C286.800690,2.579631 300.570068,2.506123 314.712555,2.607498 
	C314.505798,3.349951 313.925964,3.917521 313.173035,4.741841 
	C307.977844,4.999200 302.955780,4.999808 297.022705,5.000212 
	C293.741119,5.000126 291.370575,5.000246 289.000000,5.000366 
	C286.629425,4.999344 284.258881,4.998322 281.444153,4.998260 
	C278.631226,4.996875 276.262482,4.994529 273.450226,4.989106 
z"/>
<path fill="#07AEE2" opacity="1.000000" stroke="none" 
	d="
M296.002441,144.000824 
	C295.720581,144.293411 295.438721,144.585999 294.951935,144.931595 
	C294.639923,126.692131 294.532837,108.399666 294.626648,89.633492 
	C294.827545,89.159790 295.136017,89.035774 295.136017,89.035774 
	C295.136017,89.035774 295.572723,89.014076 295.787659,89.477402 
	C296.002563,107.960754 296.002502,125.980789 296.002441,144.000824 
z"/>
<path fill="#0DB4E0" opacity="1.000000" stroke="none" 
	d="
M317.998779,89.999390 
	C314.121552,90.274185 310.244324,90.548981 306.704529,90.799858 
	C306.145233,88.846802 305.573242,86.849533 305.002289,84.487976 
	C307.377136,84.083878 309.750977,84.044075 312.565002,84.466934 
	C313.745575,85.945114 314.387604,87.056328 315.255310,87.947861 
	C316.041962,88.756104 317.074615,89.324974 317.998779,89.999390 
z"/>
<path fill="#25B9BD" opacity="1.000000" stroke="none" 
	d="
M222.001831,146.001221 
	C221.819901,145.998474 221.637955,145.995728 221.183197,145.984039 
	C220.860229,127.329170 220.810074,108.683243 220.972809,89.348427 
	C221.457352,88.434280 221.729004,88.209023 222.000656,87.983765 
	C222.006012,88.151337 222.011353,88.318901 222.011780,89.207703 
	C222.005203,108.619698 222.003510,127.310463 222.001831,146.001221 
z"/>
<path fill="#2CB9C3" opacity="1.000000" stroke="none" 
	d="
M203.978409,5.997379 
	C203.237350,5.995443 202.496307,5.993507 201.385162,5.990296 
	C201.019318,5.077165 201.023575,4.165308 201.033539,2.914756 
	C208.407684,2.493083 215.776123,2.410105 223.730927,2.552331 
	C224.519257,2.913686 224.736099,3.019372 224.967789,3.094593 
	C222.594955,3.396820 220.222107,3.699048 217.422195,4.003350 
	C214.622009,4.005089 212.248886,4.004753 209.036804,4.005454 
	C206.791351,4.670121 205.384888,5.333749 203.978409,5.997379 
z"/>
<path fill="#08B5E3" opacity="1.000000" stroke="none" 
	d="
M318.052704,90.343414 
	C317.074615,89.324974 316.041962,88.756104 315.255310,87.947861 
	C314.387604,87.056328 313.745575,85.945114 313.004517,84.539307 
	C315.525665,84.161537 318.047546,84.174065 320.804840,84.524231 
	C320.973938,90.573715 326.078369,86.497894 327.522583,88.084557 
	C325.483673,89.063553 323.255188,90.133575 321.009705,91.606613 
	C320.030670,91.568901 319.068634,91.128174 318.052704,90.343414 
z"/>
<path fill="#69C7B6" opacity="1.000000" stroke="none" 
	d="
M97.036102,51.344585 
	C98.579659,50.124969 100.136147,49.261013 101.692635,48.397057 
	C102.460800,50.018475 103.536644,51.570801 103.920113,53.278591 
	C104.411697,55.467957 103.739029,57.274559 100.465439,56.996071 
	C99.053375,55.232025 98.051201,53.466133 97.036102,51.344585 
z"/>
<path fill="#37C4CC" opacity="1.000000" stroke="none" 
	d="
M222.187836,87.735359 
	C221.729004,88.209023 221.457352,88.434280 221.051239,88.892990 
	C220.757660,87.584251 220.598541,86.042053 220.396317,84.081856 
	C228.337494,84.081856 235.691696,84.081856 243.499527,84.191193 
	C243.178452,84.533607 242.403748,84.766693 240.845718,84.998627 
	C235.041199,85.331978 230.020004,85.666489 224.998810,86.001007 
	C224.124207,86.496315 223.249603,86.991638 222.187836,87.735359 
z"/>
<path fill="#F2FDFD" opacity="1.000000" stroke="none" 
	d="
M297.002686,65.823586 
	C302.029114,65.890381 307.055511,65.957184 312.544739,66.094482 
	C313.007538,66.164986 313.002167,66.582481 312.563049,66.791267 
	C310.082428,67.000542 308.040894,67.001030 305.999359,67.001511 
	C297.893188,66.899132 289.787048,66.796753 281.361725,66.437607 
	C283.403320,66.108330 285.764038,66.035812 289.003540,65.963104 
	C292.255768,65.916466 294.629242,65.870026 297.002686,65.823586 
z"/>
<path fill="#69C7B6" opacity="1.000000" stroke="none" 
	d="
M100.747696,61.620438 
	C104.392639,61.848637 108.031029,62.484375 112.076935,63.144691 
	C108.746101,66.305008 102.288612,65.677437 100.747696,61.620438 
z"/>
<path fill="#EFF8F9" opacity="1.000000" stroke="none" 
	d="
M341.081116,99.974876 
	C340.188232,96.864571 339.295380,93.754265 338.266541,90.315643 
	C343.064667,89.431229 343.906158,92.460663 343.861328,96.687233 
	C343.266663,98.459831 342.542175,99.925545 341.568481,101.364952 
	C341.239899,100.884048 341.160522,100.429466 341.081116,99.974876 
z"/>
<path fill="#62C5B8" opacity="1.000000" stroke="none" 
	d="
M124.448967,27.915894 
	C125.035751,25.167227 125.918762,22.215687 127.198242,19.193161 
	C126.644875,21.985792 125.695030,24.849407 124.448967,27.915894 
z"/>
<path fill="#42BFCD" opacity="1.000000" stroke="none" 
	d="
M184.796570,3.204675 
	C184.455673,4.891485 183.908157,6.556468 183.360641,8.221453 
	C182.731522,7.929942 182.102402,7.638432 181.473297,7.346921 
	C182.220428,6.330700 182.967545,5.314479 183.839020,3.980560 
	C184.072769,3.373105 184.281616,3.213101 184.796570,3.204675 
z"/>
<path fill="#42C4BA" opacity="1.000000" stroke="none" 
	d="
M182.858612,85.690155 
	C181.230972,85.713272 179.349182,85.481270 177.120117,84.834473 
	C176.842682,84.236160 176.912506,84.052643 176.982346,83.869133 
	C178.856384,84.391106 180.730423,84.913078 182.858612,85.690155 
z"/>
<path fill="#FFFDF4" opacity="1.000000" stroke="none" 
	d="
M306.257080,67.280670 
	C308.040894,67.001030 310.082428,67.000542 312.561371,67.000031 
	C310.837433,67.186607 308.676117,67.373222 306.257080,67.280670 
z"/>
<path fill="#62C5B8" opacity="1.000000" stroke="none" 
	d="
M121.999542,32.999466 
	C122.521629,31.462135 123.044174,29.925341 123.892250,28.241148 
	C123.893066,29.521437 123.568344,30.949121 122.834663,32.689087 
	C122.425705,33.001366 122.001175,33.001068 122.001175,33.001068 
	C122.001175,33.001068 122.000000,33.000000 121.999542,32.999466 
z"/>
<path fill="#A5DAD7" opacity="1.000000" stroke="none" 
	d="
M176.785034,83.658875 
	C176.912506,84.052643 176.842682,84.236160 176.732056,84.711899 
	C176.691254,85.004128 176.688538,85.277573 176.530029,85.444153 
	C176.032898,85.416656 175.694260,85.222572 175.355637,85.028481 
	C175.062927,84.711723 174.770218,84.394966 174.199402,83.892769 
	C174.810104,83.621094 175.698898,83.534859 176.785034,83.658875 
z"/>
<path fill="#5DC5B7" opacity="1.000000" stroke="none" 
	d="
M91.422852,83.550720 
	C90.891319,83.839287 90.040802,83.983398 89.125519,83.914352 
	C89.741791,83.602882 90.422821,83.504578 91.422852,83.550720 
z"/>
<path fill="#08B5E3" opacity="1.000000" stroke="none" 
	d="
M297.651733,84.059723 
	C297.235199,84.728897 296.498779,85.334541 295.497711,85.708633 
	C295.501312,85.020844 295.769531,84.564613 296.037750,84.108383 
	C296.469086,84.070984 296.900452,84.033585 297.651733,84.059723 
z"/>
<path fill="#60C6BE" opacity="1.000000" stroke="none" 
	d="
M141.774475,63.983364 
	C142.038727,63.976128 142.440933,63.978870 142.641800,63.975945 
	C142.111252,64.289131 141.379837,64.605240 140.318039,64.848030 
	C139.987656,64.774712 139.994308,64.377045 139.999146,64.177994 
	C140.003998,63.978943 140.492889,63.992527 140.737213,63.990444 
	C141.157791,63.989109 141.334015,63.989857 141.774475,63.983364 
z"/>
<path fill="#65CDEB" opacity="1.000000" stroke="none" 
	d="
M295.681305,84.077164 
	C295.769531,84.564613 295.501312,85.020844 295.199951,85.739754 
	C295.166779,86.002434 294.831757,86.123108 294.656372,86.151123 
	C294.762268,85.468071 295.043549,84.757004 295.681305,84.077164 
z"/>
<path fill="#37C4CC" opacity="1.000000" stroke="none" 
	d="
M249.721634,84.815918 
	C249.207382,84.945953 248.443619,84.908997 247.436218,84.727554 
	C247.952438,84.605019 248.712280,84.626976 249.721634,84.815918 
z"/>
<path fill="#42BFCD" opacity="1.000000" stroke="none" 
	d="
M215.317581,65.916435 
	C214.987930,65.848419 214.996262,65.424385 214.998749,65.212341 
	C215.539444,65.139526 216.077682,65.278748 216.797913,65.634026 
	C216.535706,65.894867 216.091461,65.939659 215.317581,65.916435 
z"/>
<path fill="#26BAD6" opacity="1.000000" stroke="none" 
	d="
M266.427094,141.149902 
	C266.139069,141.007812 266.100098,140.809021 266.030548,140.305115 
	C266.000000,140.000000 266.006256,139.993607 266.006256,139.993607 
	C266.291748,139.998291 266.577148,139.994934 267.075348,139.973083 
	C267.084259,140.339523 266.880219,140.716370 266.427094,141.149902 
z"/>
<path fill="#69C7B6" opacity="1.000000" stroke="none" 
	d="
M99.920547,59.303242 
	C100.269630,59.491974 100.587013,59.995235 100.867493,60.814732 
	C100.516678,60.626568 100.202766,60.122169 99.920547,59.303242 
z"/>
<path fill="#26BAD6" opacity="1.000000" stroke="none" 
	d="
M265.305908,142.032379 
	C265.250610,141.814758 265.461639,141.534393 265.934540,141.183640 
	C265.988342,141.398712 265.780273,141.684174 265.305908,142.032379 
z"/>
<path fill="#87CCA8" opacity="1.000000" stroke="none" 
	d="
M38.241886,13.140266 
	C38.266457,12.973007 38.549377,12.842218 38.922230,12.893506 
	C38.841518,13.109301 38.670879,13.143019 38.241886,13.140266 
z"/>
<path fill="#65CDEB" opacity="1.000000" stroke="none" 
	d="
M295.045227,88.834579 
	C295.136017,89.035774 294.827545,89.159790 294.662964,89.180649 
	C294.416992,88.990211 294.335571,88.778923 294.356903,88.243797 
	C294.704071,88.102623 294.868988,88.340431 295.045227,88.834579 
z"/>
<path fill="#60C6BE" opacity="1.000000" stroke="none" 
	d="
M122.031410,33.366310 
	C122.001175,33.001068 122.425705,33.001366 122.637589,33.001602 
	C122.747620,33.354038 122.645767,33.706238 122.346535,34.258865 
	C122.119987,34.216709 122.090820,33.974133 122.031410,33.366310 
z"/>
<path fill="#42BFCD" opacity="1.000000" stroke="none" 
	d="
M224.995178,2.950272 
	C224.736099,3.019372 224.519257,2.913686 224.193939,2.646291 
	C224.232849,2.459240 224.395096,2.403437 224.801270,2.430331 
	C225.045227,2.513030 225.022568,2.805952 224.995178,2.950272 
z"/>
<path fill="#A5DAD7" opacity="1.000000" stroke="none" 
	d="
M95.908607,84.052078 
	C95.908607,84.052078 95.854668,83.719582 95.827393,83.555031 
	C96.038818,83.338387 96.277512,83.286285 96.871506,83.329147 
	C97.226791,83.424126 97.140396,83.767250 96.808105,83.904175 
	C96.286751,84.044754 96.097679,84.048416 95.908607,84.052078 
z"/>
<path fill="#60C6BE" opacity="1.000000" stroke="none" 
	d="
M129.291595,64.233727 
	C129.500961,64.117035 129.667633,64.242844 129.880219,64.548935 
	C129.959335,64.685204 129.563263,64.712379 129.563263,64.712379 
	C129.563263,64.712379 129.282135,64.432228 129.291595,64.233727 
z"/>
<path fill="#60C6BE" opacity="1.000000" stroke="none" 
	d="
M137.268951,64.793884 
	C137.221359,64.406723 137.468872,64.324989 137.871384,64.619156 
	C137.961914,64.744095 137.499588,64.848351 137.268951,64.793884 
z"/>
<path fill="#F4FAFA" opacity="1.000000" stroke="none" 
	d="
M326.917328,123.160797 
	C328.191101,125.024010 330.321533,126.789917 330.546661,128.772232 
	C330.925995,132.111771 328.882141,134.612274 325.098389,135.687164 
	C320.538818,135.961121 316.231903,135.998108 311.465698,136.101624 
	C308.775055,136.000076 307.429993,135.560989 308.031372,132.570908 
	C308.522858,130.127075 307.812866,127.441605 307.395508,124.515053 
	C307.155487,124.166840 307.110901,124.195862 307.379730,124.104645 
	C307.758179,123.676575 307.867798,123.339706 308.227600,122.643448 
	C314.624298,122.576302 320.770813,122.868546 326.917328,123.160797 
z"/>
<path fill="#EEF8FC" opacity="1.000000" stroke="none" 
	d="
M325.915161,98.212982 
	C328.804413,104.092216 328.147003,106.327034 322.031769,109.655624 
	C321.319794,109.848190 321.160736,109.919693 320.610687,109.947845 
	C318.777435,110.202583 317.335144,110.500671 315.528503,110.824669 
	C314.439148,110.919350 313.714172,110.988121 312.662903,110.977325 
	C311.894745,110.948639 311.452911,110.999512 310.698730,110.871529 
	C309.578400,108.795013 308.770355,106.897354 307.962341,104.999695 
	C308.108490,102.237183 308.254639,99.474663 308.447388,95.831749 
	C313.181763,96.126694 317.683044,96.407112 322.905212,96.826736 
	C324.389099,97.381622 325.152130,97.797302 325.915161,98.212982 
z"/>
<path fill="#10B6DF" opacity="1.000000" stroke="none" 
	d="
M321.001648,109.991188 
	C321.160736,109.919693 321.319794,109.848190 321.734436,109.832230 
	C322.668182,112.833046 323.123199,115.856583 324.117065,118.691200 
	C324.627777,120.147949 326.099579,121.267738 327.027222,122.850296 
	C320.770813,122.868546 314.624298,122.576302 308.005402,122.777145 
	C307.392334,123.578773 307.251617,123.887321 307.110901,124.195862 
	C307.110901,124.195862 307.155487,124.166840 307.164185,124.193100 
	C306.337982,122.287033 304.601685,120.231476 304.845734,118.446671 
	C305.454529,113.993835 302.855560,108.885994 307.575989,105.055038 
	C308.770355,106.897354 309.578400,108.795013 310.844910,111.087914 
	C311.865326,111.341064 312.427246,111.198975 312.989197,111.056885 
	C313.714172,110.988121 314.439148,110.919350 315.755249,111.124725 
	C317.898132,110.929642 319.449890,110.460411 321.001648,109.991188 
z"/>
<path fill="#0FBDD5" opacity="1.000000" stroke="none" 
	d="
M296.298004,143.705582 
	C296.002502,125.980789 296.002563,107.960754 296.006256,89.472710 
	C296.320801,89.566658 296.905182,90.129677 296.903015,90.690430 
	C296.835052,108.263863 296.709961,125.837082 296.298004,143.705582 
z"/>
<path fill="#08B5E3" opacity="1.000000" stroke="none" 
	d="
M325.972229,97.840057 
	C325.152130,97.797302 324.389099,97.381622 323.317261,96.846565 
	C323.006958,96.341484 323.005493,95.955780 323.000427,95.280624 
	C323.371918,94.270035 323.566833,93.223579 324.159515,92.895287 
	C325.404144,92.205910 326.857758,91.893906 328.225586,91.427002 
	C327.907379,92.763092 327.668701,94.125404 327.239960,95.425034 
	C326.997833,96.158989 326.443176,96.789848 325.972229,97.840057 
z"/>
<path fill="#FAFDFD" opacity="1.000000" stroke="none" 
	d="
M235.014633,97.507584 
	C240.421768,97.463409 245.810577,97.388878 250.989090,98.395882 
	C258.827148,99.920059 263.623230,105.266029 264.681091,113.034340 
	C265.752533,120.902267 263.288055,127.779999 256.019348,132.637207 
	C252.832443,133.608932 249.815704,134.276810 246.401138,135.019775 
	C242.525223,135.094833 239.047119,135.094833 234.902161,135.094833 
	C234.902161,122.460526 234.902161,110.210991 235.014633,97.507584 
z"/>
<path fill="#28BAD3" opacity="1.000000" stroke="none" 
	d="
M240.995728,86.994049 
	C242.990036,87.654129 245.080185,88.120827 246.943863,89.044495 
	C248.123001,89.628899 248.964355,90.894821 249.957199,91.855087 
	C248.758896,92.899094 247.643188,94.702545 246.346695,94.843521 
	C242.580475,95.253036 238.741791,94.996117 234.464844,94.999702 
	C235.615646,92.746643 237.451157,90.524811 235.433685,87.353996 
	C237.569290,86.997467 239.282516,86.995758 240.995728,86.994049 
z"/>
<path fill="#39B2D1" opacity="1.000000" stroke="none" 
	d="
M223.299118,146.706024 
	C223.002762,146.834961 223.001022,146.667847 222.999008,145.781479 
	C223.010757,126.379517 223.022797,107.696808 223.034851,89.014099 
	C223.355927,90.077438 223.953888,91.140007 223.956818,92.204224 
	C224.005386,109.796425 223.982086,127.388847 223.953949,144.981171 
	C223.953186,145.457626 223.719055,145.933716 223.299118,146.706024 
z"/>
<path fill="#2ABDD1" opacity="1.000000" stroke="none" 
	d="
M222.782623,89.005920 
	C223.022797,107.696808 223.010757,126.379517 222.997086,145.530807 
	C222.995453,145.999390 222.498627,146.001038 222.250229,146.001129 
	C222.003510,127.310463 222.005203,108.619698 222.016327,89.459129 
	C222.193970,88.992119 222.362183,88.994926 222.782623,89.005920 
z"/>
<path fill="#33B9D6" opacity="1.000000" stroke="none" 
	d="
M240.996613,86.661446 
	C239.282516,86.995758 237.569290,86.997467 235.427734,86.998825 
	C231.954742,86.666008 228.910095,86.333534 225.432129,86.001038 
	C230.020004,85.666489 235.041199,85.331978 240.528137,84.997818 
	C240.995102,85.441727 240.996307,85.885284 240.996613,86.661446 
z"/>
<path fill="#21BAD6" opacity="1.000000" stroke="none" 
	d="
M233.965271,121.633163 
	C233.908508,123.361656 233.851791,124.644371 233.795074,125.927094 
	C233.618530,125.923019 233.441986,125.918945 233.265442,125.914879 
	C233.265442,118.961563 233.265442,112.008247 233.265442,105.054932 
	C233.498734,105.051903 233.732010,105.048882 233.965302,105.045853 
	C233.965302,110.426369 233.965302,115.806877 233.965271,121.633163 
z"/>
<path fill="#26BAD6" opacity="1.000000" stroke="none" 
	d="
M239.661804,136.007782 
	C239.427277,136.158844 238.862381,136.307693 238.153839,136.233093 
	C238.450607,136.008286 238.891022,136.006927 239.661804,136.007782 
z"/>
<path fill="#21BAD6" opacity="1.000000" stroke="none" 
	d="
M233.460541,131.447388 
	C233.516708,131.412079 233.404388,131.482697 233.460541,131.447388 
z"/>
<path fill="#69C7B6" opacity="1.000000" stroke="none" 
	d="
M107.638123,40.998955 
	C107.496056,41.906136 107.017006,42.872459 106.537949,43.838783 
	C106.143631,43.741444 105.749313,43.644100 105.355003,43.546761 
	C105.251427,42.209480 105.147850,40.872204 105.078598,39.120659 
	C105.842323,39.490299 106.571732,40.274197 107.638123,40.998955 
z"/>
<path fill="#69C7B6" opacity="1.000000" stroke="none" 
	d="
M104.116280,35.703686 
	C103.765808,35.246864 103.391495,34.446777 103.032486,33.290596 
	C103.396019,33.743137 103.744232,34.551777 104.116280,35.703686 
z"/>
<path fill="#69C7B6" opacity="1.000000" stroke="none" 
	d="
M103.063370,32.723583 
	C102.913017,32.723904 102.749893,32.479488 102.733444,32.127190 
	C102.880112,32.019310 103.050598,32.478844 103.063370,32.723583 
z"/>
<path fill="#88CCA7" opacity="1.000000" stroke="none" 
	d="
M12.931147,139.058273 
	C13.084016,138.824005 13.301440,138.537521 13.759430,138.125519 
	C13.999995,138.000000 14.007558,138.005814 14.007560,138.005814 
	C13.791214,138.288940 13.574866,138.572067 13.124462,138.994705 
	C12.890407,139.134232 12.995701,139.006058 12.931147,139.058273 
z"/>
<path fill="#88CCA7" opacity="1.000000" stroke="none" 
	d="
M13.997019,137.996185 
	C14.089618,137.959351 14.185193,137.926361 14.144163,137.949585 
	C14.007558,138.005814 13.999995,138.000000 13.997019,137.996185 
z"/>
<path fill="#07B4E4" opacity="1.000000" stroke="none" 
	d="
M324.199890,145.013153 
	C324.970184,145.080032 325.440369,145.154114 325.910553,145.228180 
	C325.919403,145.393265 325.928284,145.558365 325.937134,145.723450 
	C325.005005,145.723450 324.072784,145.727722 323.141022,145.709076 
	C323.100433,145.708282 323.018311,145.404755 323.032410,145.397781 
	C323.314728,145.258224 323.608398,145.141602 324.199890,145.013153 
z"/>
<path fill="#4AC1C2" opacity="1.000000" stroke="none" 
	d="
M161.013229,86.994202 
	C163.048233,86.994934 165.083237,86.995682 167.805405,86.996948 
	C168.659866,86.997597 168.827179,86.997734 168.996170,87.466660 
	C168.998566,104.172516 169.047653,120.409782 168.981689,136.646576 
	C168.942642,146.258636 170.261154,144.744614 160.478043,145.078018 
	C157.970520,145.163467 155.496017,146.217285 153.006348,146.826233 
	C152.556885,146.870117 152.107407,146.913986 151.325516,146.690002 
	C150.993088,146.422134 150.994904,146.006271 151.155792,145.639465 
	C151.877792,141.027893 152.831909,136.791565 152.923004,132.536758 
	C153.154572,121.718643 153.046509,110.891953 152.977890,100.069313 
	C152.949066,95.522896 154.466629,90.433495 149.119431,87.448685 
	C148.884155,87.317368 149.032303,86.499161 149.001831,86.000916 
	C150.067703,86.000412 151.133560,85.999916 152.876312,86.288208 
	C156.039886,86.716072 158.526550,86.855133 161.013229,86.994202 
z"/>
<path fill="#71C8B1" opacity="1.000000" stroke="none" 
	d="
M66.442627,146.937714 
	C66.000145,139.319351 66.101151,131.750839 65.977341,124.186012 
	C65.768661,111.434776 65.417389,98.685890 65.104713,85.000427 
	C67.019768,85.000427 69.563141,85.000427 72.553802,85.001419 
	C75.352364,85.997353 77.703644,86.992287 80.666466,88.246002 
	C80.721992,88.757057 81.005707,90.035675 80.976349,91.307068 
	C80.721886,102.326591 80.255257,113.343735 80.178635,124.363853 
	C80.136169,130.472534 80.632652,136.591934 81.091919,142.691025 
	C81.180344,143.865387 82.225677,144.967697 82.914566,146.467987 
	C80.300369,146.916946 77.601173,147.001144 74.455170,147.140350 
	C71.633919,147.126633 69.259483,147.057922 66.442627,146.937714 
z"/>
<path fill="#55C3BD" opacity="1.000000" stroke="none" 
	d="
M136.999390,85.001221 
	C139.410324,85.657951 141.821274,86.314682 144.615372,87.446548 
	C144.998001,107.276741 144.997467,126.631798 144.560608,145.989990 
	C141.434189,146.284058 138.744141,146.574982 136.054077,146.865906 
	C133.990631,146.908096 131.927185,146.950287 129.432281,146.707153 
	C129.000824,146.421799 129.001831,145.986481 129.011490,145.564819 
	C129.346573,143.357178 129.947433,141.572357 129.954727,139.785095 
	C130.025696,122.368416 129.997437,104.951332 129.997437,87.949677 
	C132.299896,86.980133 134.649643,85.990677 136.999390,85.001221 
z"/>
<path fill="#46BFC7" opacity="1.000000" stroke="none" 
	d="
M153.470352,146.893219 
	C155.496017,146.217285 157.970520,145.163467 160.478043,145.078018 
	C170.261154,144.744614 168.942642,146.258636 168.981689,136.646576 
	C169.047653,120.409782 168.998566,104.172516 168.995956,87.215576 
	C168.991638,86.328316 168.989197,86.160927 168.986771,85.993546 
	C170.812805,85.665604 172.638824,85.337669 174.910248,85.019104 
	C175.694260,85.222572 176.032898,85.416656 176.579254,85.571716 
	C176.858032,87.984016 176.958130,90.434898 176.995377,92.886734 
	C177.222321,107.820625 177.469452,122.754379 177.619934,137.689087 
	C177.646439,140.317429 177.248383,142.950027 177.066895,146.061707 
	C169.369705,146.681915 161.652039,146.821075 153.470352,146.893219 
z"/>
<path fill="#47C2AE" opacity="1.000000" stroke="none" 
	d="
M136.513397,146.919342 
	C138.744141,146.574982 141.434189,146.284058 144.989182,145.994629 
	C147.567703,145.999512 149.281311,146.002884 150.994904,146.006271 
	C150.994904,146.006271 150.993088,146.422134 150.990555,146.630005 
	C146.316254,146.882843 141.644501,146.927811 136.513397,146.919342 
z"/>
<path fill="#47C2AE" opacity="1.000000" stroke="none" 
	d="
M129.001831,145.986481 
	C129.001831,145.986481 129.000824,146.421799 128.994843,146.639328 
	C126.625809,146.890198 124.262749,146.923538 121.459625,146.906250 
	C121.019577,146.855637 121.000717,146.421768 121.443390,146.209290 
	C124.257980,145.993362 126.629906,145.989929 129.001831,145.986481 
z"/>
<path fill="#47C2AE" opacity="1.000000" stroke="none" 
	d="
M104.472900,146.890854 
	C104.037354,146.830826 104.024910,146.427124 104.394760,146.218674 
	C105.509476,146.004791 106.254326,145.999344 106.999184,145.993896 
	C108.468689,146.112106 109.938194,146.230331 111.668365,146.600128 
	C109.588829,146.884766 107.248642,146.917831 104.472900,146.890854 
z"/>
<path fill="#28B2E9" opacity="1.000000" stroke="none" 
	d="
M343.241119,136.758560 
	C343.142120,135.169571 343.278687,133.365433 343.669861,131.279739 
	C343.962585,131.764954 344.000702,132.531708 344.083252,133.680511 
	C343.910706,134.889496 343.693726,135.716446 343.241119,136.758560 
z"/>
<path fill="#08B5E3" opacity="1.000000" stroke="none" 
	d="
M340.805206,100.186066 
	C341.160522,100.429466 341.239899,100.884048 341.403442,101.675682 
	C341.389679,102.458748 341.291748,102.904770 341.153900,103.935867 
	C341.118317,104.693459 341.122681,104.865982 341.127075,105.038513 
	C341.127075,105.038513 340.946960,104.975250 340.859558,104.936783 
	C340.691223,103.397957 340.610260,101.897598 340.805206,100.186066 
z"/>
<path fill="#EFF8F9" opacity="1.000000" stroke="none" 
	d="
M339.278290,108.865707 
	C339.183685,108.685555 339.316315,108.359406 339.677429,107.886902 
	C339.772491,108.066933 339.639008,108.393318 339.278290,108.865707 
z"/>
<path fill="#EFF8F9" opacity="1.000000" stroke="none" 
	d="
M341.275879,104.953125 
	C341.122681,104.865982 341.118317,104.693459 341.201904,104.277565 
	C341.400177,104.219650 341.532806,104.396774 341.607452,104.595657 
	C341.629761,104.655106 341.490112,104.775352 341.275879,104.953125 
z"/>
<path fill="#10B6DF" opacity="1.000000" stroke="none" 
	d="
M340.058899,119.595184 
	C337.441650,120.515022 334.670288,121.122055 331.067627,121.911171 
	C330.913818,121.656448 330.145386,120.383911 329.378601,119.114120 
	C330.671356,118.151642 331.877197,117.253891 333.221436,116.000229 
	C335.541473,116.857010 337.723114,118.069695 340.058899,119.595184 
z"/>
<path fill="#10B6DF" opacity="1.000000" stroke="none" 
	d="
M333.083466,115.450974 
	C332.370117,115.244469 331.494812,114.807190 330.897400,114.205231 
	C331.757385,114.433769 332.339447,114.826981 333.083466,115.450974 
z"/>
<path fill="#10B6DF" opacity="1.000000" stroke="none" 
	d="
M332.499878,113.320251 
	C332.862854,112.888863 333.548035,112.440315 334.577026,111.988159 
	C334.221283,112.424072 333.521698,112.863586 332.499878,113.320251 
z"/>
<path fill="#10B6DF" opacity="1.000000" stroke="none" 
	d="
M331.340088,114.076385 
	C331.070618,113.933990 331.049774,113.747681 331.014465,113.280685 
	C331.000000,113.000000 331.000000,113.000305 331.000000,113.000305 
	C331.213287,113.034706 331.426544,113.069115 331.946777,113.212982 
	C332.032043,113.559120 331.810394,113.795792 331.340088,114.076385 
z"/>
<path fill="#68C8A8" opacity="1.000000" stroke="none" 
	d="
M55.587372,145.996185 
	C56.000763,145.993896 55.997643,146.428955 55.992393,146.646210 
	C53.967014,146.895554 51.946880,146.927643 49.498379,146.909485 
	C51.104668,146.572327 53.139328,146.285416 55.587372,145.996185 
z"/>
<path fill="#68C8A8" opacity="1.000000" stroke="none" 
	d="
M41.722935,146.015854 
	C42.001678,146.000610 41.994820,146.426636 41.987663,146.639313 
	C41.556419,146.883072 41.132332,146.914139 40.393047,146.893738 
	C40.533298,146.571869 40.988747,146.301483 41.722935,146.015854 
z"/>
<path fill="#28B2E9" opacity="1.000000" stroke="none" 
	d="
M343.920654,128.666534 
	C343.720795,128.445862 343.579681,127.886536 343.615540,127.149673 
	C343.854797,127.424049 343.917114,127.875961 343.920654,128.666534 
z"/>
<path fill="#35BDCC" opacity="1.000000" stroke="none" 
	d="
M224.468506,5.451437 
	C224.522781,5.419379 224.414246,5.483494 224.468506,5.451437 
z"/>
<path fill="#30BBCE" opacity="1.000000" stroke="none" 
	d="
M248.107086,5.218180 
	C248.165512,4.998997 248.333115,4.999129 248.752197,4.999219 
	C249.003632,5.166031 249.003586,5.332886 249.002991,5.750028 
	C248.679184,5.898181 248.417130,5.710574 248.107086,5.218180 
z"/>
<path fill="#49C0C5" opacity="1.000000" stroke="none" 
	d="
M175.002777,57.997025 
	C177.516541,57.994144 180.027588,57.994144 182.538651,57.994144 
	C182.489563,58.623730 182.440475,59.253315 182.391403,59.882896 
	C180.021667,59.446842 177.651947,59.010788 175.139191,58.290024 
	C174.996140,58.005318 175.000046,57.999905 175.002777,57.997025 
z"/>
<path fill="#26BAD6" opacity="1.000000" stroke="none" 
	d="
M262.498566,132.305252 
	C263.276642,131.952179 263.920319,131.860443 264.564026,131.768692 
	C264.342590,132.301376 264.121155,132.834061 263.899719,133.366745 
	C263.387878,133.100021 262.876038,132.833313 262.498566,132.305252 
z"/>
<path fill="#28BAD3" opacity="1.000000" stroke="none" 
	d="
M246.014313,86.966759 
	C245.531433,86.726196 245.317459,86.484482 245.103485,86.242767 
	C245.700043,86.237556 246.296616,86.232353 246.893173,86.227142 
	C246.689850,86.473305 246.486542,86.719460 246.014313,86.966759 
z"/>
<path fill="#26BAD6" opacity="1.000000" stroke="none" 
	d="
M265.996857,140.003113 
	C265.543579,139.850998 265.093414,139.695786 264.643280,139.540558 
	C264.775818,139.261200 264.908356,138.981842 265.040863,138.702484 
	C265.349426,138.963425 265.657959,139.224350 265.986389,139.739441 
	C266.006256,139.993607 266.000000,140.000000 265.996857,140.003113 
z"/>
<path fill="#15B7DB" opacity="1.000000" stroke="none" 
	d="
M296.939941,65.427094 
	C294.629242,65.870026 292.255768,65.916466 289.442078,65.894890 
	C288.667908,50.049026 288.351501,34.270782 287.986481,18.493660 
	C287.904755,14.961146 287.652618,11.432576 287.437195,7.054331 
	C287.292969,7.190210 288.092560,6.436911 288.946106,5.341989 
	C291.370575,5.000246 293.741119,5.000126 296.555847,5.000657 
	C297.000000,19.951153 297.010101,34.901012 296.994354,49.850838 
	C296.989014,54.910797 296.918091,59.970688 296.939941,65.427094 
z"/>
<path fill="#65C5B7" opacity="1.000000" stroke="none" 
	d="
M106.999527,145.525879 
	C106.254326,145.999344 105.509476,146.004791 104.392883,146.016724 
	C101.800697,145.676407 99.587059,145.275345 97.358192,144.995438 
	C93.990082,144.572464 91.788559,143.303238 91.963982,139.335815 
	C92.395836,129.568954 92.751732,119.795609 92.916946,110.021133 
	C93.030884,103.280411 93.273407,96.473190 92.468224,89.815453 
	C92.083473,86.634117 93.545059,85.733612 95.609604,84.201309 
	C96.097679,84.048416 96.286751,84.044754 96.758057,84.073860 
	C98.847939,84.737984 100.619789,85.743797 102.470856,85.920685 
	C106.034203,86.261169 107.917923,86.497261 107.363022,91.461922 
	C106.543907,98.790581 107.668541,106.322128 107.725830,113.769112 
	C107.754875,117.543785 107.104317,121.319656 107.034752,125.100014 
	C106.912376,131.750595 107.000122,138.405045 106.999527,145.525879 
z"/>
<path fill="#59C3BC" opacity="1.000000" stroke="none" 
	d="
M129.011490,145.564819 
	C126.629906,145.989929 124.257980,145.993362 121.441521,145.992157 
	C120.344727,139.356812 119.457748,132.736526 119.162407,126.089973 
	C119.053131,123.630646 120.877190,121.111992 120.888542,118.616158 
	C120.938805,107.575340 120.650322,96.532990 120.750267,85.241211 
	C126.032677,84.992508 131.049255,84.993767 136.532623,84.998123 
	C134.649643,85.990677 132.299896,86.980133 129.997437,87.949677 
	C129.997437,104.951332 130.025696,122.368416 129.954727,139.785095 
	C129.947433,141.572357 129.346573,143.357178 129.011490,145.564819 
z"/>
<path fill="#83CCAA" opacity="1.000000" stroke="none" 
	d="
M25.468460,88.450653 
	C25.523291,88.418144 25.413631,88.483162 25.468460,88.450653 
z"/>
<path fill="#71C8B1" opacity="1.000000" stroke="none" 
	d="
M88.450546,88.531845 
	C88.418236,88.477470 88.482849,88.586220 88.450546,88.531845 
z"/>
<path fill="#10B6DF" opacity="1.000000" stroke="none" 
	d="
M331.000000,112.999847 
	C329.807281,112.841370 328.614594,112.683044 326.771271,112.438347 
	C328.487213,110.481308 329.705597,109.091743 330.961975,107.351166 
	C331.000000,107.000153 331.007385,106.998474 331.007385,106.998474 
	C332.791901,106.998474 334.576447,106.998474 336.216766,106.998474 
	C334.579956,108.654694 332.795258,110.460587 331.005280,112.633392 
	C331.000000,113.000305 331.000000,113.000000 331.000000,112.999847 
z"/>
<path fill="#08B5E3" opacity="1.000000" stroke="none" 
	d="
M330.999390,107.003860 
	C330.490173,106.703079 329.981567,106.398598 329.472961,106.094124 
	C329.654114,105.885010 329.835266,105.675896 330.016388,105.466782 
	C330.321564,105.788399 330.626740,106.110023 330.969666,106.715057 
	C331.007385,106.998474 331.000000,107.000153 330.999390,107.003860 
z"/>
<path fill="#08B5E3" opacity="1.000000" stroke="none" 
	d="
M338.642273,103.745682 
	C338.627533,103.992111 338.495209,104.126427 338.362885,104.260742 
	C338.416840,104.051682 338.470764,103.842613 338.642273,103.745682 
z"/>
<path fill="#42BFCD" opacity="1.000000" stroke="none" 
	d="
M204.375671,5.998075 
	C205.384888,5.333749 206.791351,4.670121 208.591858,4.009464 
	C207.581573,4.674548 206.177261,5.336659 204.375671,5.998075 
z"/>
<path fill="#50C1C2" opacity="1.000000" stroke="none" 
	d="
M151.155792,145.639465 
	C149.281311,146.002884 147.567703,145.999512 145.425537,145.991486 
	C144.997467,126.631798 144.998001,107.276741 144.997009,87.450783 
	C146.087082,86.653000 147.178665,86.326134 148.636047,86.000092 
	C149.032303,86.499161 148.884155,87.317368 149.119431,87.448685 
	C154.466629,90.433495 152.949066,95.522896 152.977890,100.069313 
	C153.046509,110.891953 153.154572,121.718643 152.923004,132.536758 
	C152.831909,136.791565 151.877792,141.027893 151.155792,145.639465 
z"/>
<path fill="#50C1C2" opacity="1.000000" stroke="none" 
	d="
M160.734604,86.706573 
	C158.526550,86.855133 156.039886,86.716072 153.276306,86.288780 
	C155.484924,86.140015 157.970444,86.279488 160.734604,86.706573 
z"/>
<path fill="#50C1C2" opacity="1.000000" stroke="none" 
	d="
M168.769287,86.103355 
	C168.989197,86.160927 168.991638,86.328316 168.994293,86.746780 
	C168.827179,86.997734 168.659866,86.997597 168.241486,86.995819 
	C168.092865,86.672966 168.279984,86.412628 168.769287,86.103355 
z"/>
<path fill="#12B5DF" opacity="1.000000" stroke="none" 
	d="
M307.379730,124.104652 
	C307.251617,123.887321 307.392334,123.578773 307.755219,123.136536 
	C307.867798,123.339706 307.758179,123.676575 307.379730,124.104652 
z"/>
<path fill="#08B5E3" opacity="1.000000" stroke="none" 
	d="
M320.610687,109.947845 
	C319.449890,110.460411 317.898132,110.929642 316.119629,111.098816 
	C317.335144,110.500671 318.777435,110.202583 320.610687,109.947845 
z"/>
<path fill="#08B5E3" opacity="1.000000" stroke="none" 
	d="
M312.662903,110.977325 
	C312.427246,111.198975 311.865326,111.341064 311.157227,111.266769 
	C311.452911,110.999512 311.894745,110.948639 312.662903,110.977325 
z"/>
</svg>